<?xml version="1.0" encoding="UTF-8"?>
<svg xmlns="http://www.w3.org/2000/svg" viewBox="0 0 760 1117.09">
  <defs>
    <style>
      .cls-1, .cls-2 {
        stroke-width: 0px;
      }

      .cls-2 {
        fill: #fff;
      }
    </style>
  </defs>
  <g id="Arrière-plan_Image" data-name="Arrière-plan Image">
    <path class="cls-2" d="m1490.18,1117.09H0V0h1490.18v1117.09Z"/>
  </g>
  <g id="Nouveau_groupe" data-name="Nouveau groupe">
    <g id="Final_Antoine_Image" data-name="Final Antoine Image">
      <g>
        <path class="cls-1" d="m396.94,473.23c3.44,2.45,3.19,6.49,3.56,9.86.63,5.79,2.96,11.11,3.82,16.86.6,4.02,1.36,7.97,1.36,12.1,1.92-7.24.17-14.7,1.55-21.91,1.3-6.78.44-14.13,3.93-20.37.49.1.98.2,1.47.3-.59,5.32-1.28,10.63-1.75,15.96-.72,8.12-1.29,16.25-1.92,24.38-.14,1.81-.15,3.63-.44,5.41-.27,1.65-1.52,2.31-3.14,2.48-1.8.19-2.65-.66-3.14-2.27-1.26-4.17-2.77-8.27-3.86-12.48-2.05-7.9-4.9-15.53-7.45-23.27-2.78-8.43-4.72-17.14-7.02-25.72-.33-1.22-.44-2.55-.98-3.67-4.96-10.33-8.26-21.3-12.28-31.98-1.21-3.22-2.07-6.57-3.09-9.86-3.25-10.46-9.38-19.49-14.64-28.9-8.61-15.38-19.27-29.43-30.03-43.36-4.75-6.15-9.96-11.93-14.28-18.42-1.4-2.11-2.89-4.17-3.43-7.12-1.73,1.2-2.3,2.74-3.15,4.01-2.58,3.85-5.83,6.87-10.05,8.9-4.8,2.3-5.44,3.38-4.53,8.48.61,3.41.61,6.23-4.13,7.09,2.02,3.19,3.43,6.19,5.53,8.59,6.13,7,10.55,15.19,16.22,22.49,2.34,3.01,4.56,6.11,6.92,9.09,1.22,1.54,1.97,3.05,1.01,4.97h0c-10.81-13.39-20.91-27.32-31.18-41.13-2.48-3.33-2.31-4.14,1.43-5.94,2.28-1.09,2.92-2.41,1.97-4.74-.48-1.16-.61-2.46-.87-3.7-1.15-5.5-.96-5.26,3.5-8.69,8.73-6.71,17.49-13.42,23.88-22.65,2.05-2.96,3.14-5.89,2.79-9.61-.32-3.33-1.13-6.71-.67-10.05,2.17-.43,2.49,1.03,2.98,2.11,1.8,3.95,1.92,8.05,1.12,12.26-.65,3.41.35,5.83,3.16,8.48,11.64,10.91,23.68,21.43,34.6,33.11,1.11,1.19,2.44,2.24,2.7,3.98.14.94-.08,1.87-.85,2.45-.92.7-1.73.11-2.39-.53-2.08-2.02-4.32-3.91-6.17-6.13-9.29-11.2-20.53-20.45-30.73-30.74-2.42-2.45-2.67-2.39-5.19.12-5.23,5.22-5.46,7.33-.86,13.56,6.57,8.9,13.29,17.69,20.02,26.48,1.11,1.45,2.19,2.87,3,4.52,1.17,2.39,3.12,2.93,5.47,1.95,3.34-1.41,6.72-2.76,9.93-4.44,6.02-3.15,11.54-3.61,16.99,1.42,2.63,2.42,5.41,4.83,8.73,6.46,1.87.92,3.1.89,3.71-1.28,1.2-4.29,3.83-7.75,6.26-11.38,2.86-4.27,4.9-8.88,3.48-14.32-.35-1.34-.05-2.85-.05-4.05-1.44-1.3-3.49,2.88-4.35-.95-.27-1.17-1.05-.19-1.5.26-.72.72-1,2.04-2.74,1.68-.13-2.2,1.92-3.89,1.65-6.09,0,0,0,0,0,0,2.95-.79,5.96-1.4,8.07-3.95.89-1.07,2.02-2.52,3.55-1.1,1.12,1.04.29,2.32-.4,3.4-.35.56-1.15.9-.75,2.04,3.19-.22,5.87-2.55,9.13-2.6,0,0,.07.06.07.06-1.06.7-2.09,1.44-3.18,2.08-5.7,3.34-6.61,8.45-2.19,13.48,1.79,2.04,3.66,4,5.4,6.09,2.89,3.46,4.01,7.41,3.59,11.63-.32,3.31,1.02,4.51,3.88,5.34,4.53,1.3,8.9,3.2,13.46,4.36,10,2.55,16.77,9.15,21.99,17.46,3.13,4.98,6.44,9.57,11.19,13.16,4.94,3.73,9.19,8.28,13.21,12.94,3.89,4.51,8.67,7.66,13.7,10.61,8.94,5.24,18.43,9.35,27.89,13.52,3.98,1.75,7.79,3.9,11.61,5.97,13.75,7.46,28.74,12.27,42.46,19.73,9.96,5.42,20.99,7.98,31.12,12.75,11.34,5.33,23.1,9.52,34.7,14.13,9.92,3.95,20.12,7.23,30.41,10.19,3.65,1.05,7.2,2.47,10.8,3.7,2.83.96,3.34,2.98,2.71,5.63-1.54,6.54-2.95,13.1-4.56,19.62-1.31,5.3-2.43,10.61-2.79,16.07-.21,3.14-.19,3.14-3.65,6.24-1.29-11.48,3.22-22.01,4.61-33.03-1.65,2.54-2.54,5.49-3.26,8.24-1.9,7.27-5.71,14.19-4.38,22.17.46,2.73-.9,3.64-3.63,2.91-10.3-2.77-20.68-5.22-30.99-7.93-14.02-3.69-27.61-8.93-41.92-11.55-6.52-3.98-14.4-3.45-21.26-6.47-4.8-2.11-10.26-1.92-15.24-3.85-8.29-3.21-16.6-6.35-24.82-9.74-3.51-1.45-7.21-2.41-10.83-3.59-11.02-3.58-21.67-8.18-33.04-10.86-7.54-1.78-14.71-5.12-22.05-7.74-3.93-1.4-4.18-1.24-5.15,2.76-3.78,15.73-5.71,31.75-6.68,47.85-.36,5.98-1.24,11.88-1.56,17.82-.47,8.66-.72,17.36,2.31,25.82,2.66,7.42,3.21,15.24,3.25,23.08,0,.36,0,.75-.12,1.08-2.84,7.45-.04,14.63,1.12,21.85,1.27,7.88,2.69,15.76,4.5,23.53,1.88,8.1,4.13,16.12,5.89,24.26,1.76,8.16,3.22,16.36,4.3,24.64.11.87.22,1.98-.2,2.65-3.45,5.61-5.09,12.51-11.36,16.14-2.39,1.38-2.88,3.38-2.37,6.04,2.2,11.47,2.62,23.08,2.34,34.71-.24,9.99-2.52,19.78-3.38,29.72-.48,5.58-1.46,11.13-2.42,16.65-.39,2.23-.46,4.73-2.62,6.63-2.21-1.8-1.28-4.05-1.19-6.04.37-7.64,2.59-15.01,3.43-22.59,1.61-14.44,2.82-28.88.95-43.42-.48-3.76-.14-7.62-.29-11.43-.15-4-.23-4.02-4-3.33-.71.13-1.43.3-2.15.38-4.54.53-6.77-.97-6.78-5.53-.03-13.12-2.8-25.96-3.63-39-.54-8.47-2.38-16.89-4-25.26-.94-4.85-1.72-9.64-1.3-14.58.27-3.21-.08-6.42-.85-10.63,2.9,2.27,3.05,4.41,3.1,6.53.23,10.55,2.76,20.79,4.16,31.19,1.18,8.81,3.49,17.4,4.83,26.15,1.18,7.67,1.31,15.51,1.74,23.29.19,3.38,1.26,4.34,4.25,2.99,1.47-.66,3.02-1.51,4.06-2.69,3.95-4.48,8.55-8.39,11.66-13.62,1.47-2.47,2-4.9,1.58-7.77-1.57-10.78-3.38-21.48-6.33-32-2.55-9.09-3.4-18.53-5.05-27.81-.88-5-2.84-9.68-3.84-14.7-1.65-8.25-1.02-16.65-2.61-24.86-.66-3.4,1.84-7.15,1.16-9.94-.75-3.06-3.27-6.25-3.21-9.47.3-16.12-2.17-32.35.68-48.33,1.6-8.92,2.9-17.89,4.34-26.83,1.17-7.32,1.81-14.73,3.89-21.89.51-1.74.72-3.61,1.49-5.22,1.52-3.18,2.18-6.46,2.49-9.95.54-6.12,2.63-12.07,2.25-18.32-.03-.5.25-1.06.49-1.54.24-.5.69-.87,1.28-.71.3.08.67.38.76.66.22.68.41,1.41.39,2.12-.17,9.8-.73,19.56-3.42,29.06-1.27,4.49-1.08,5.17,3.43,6.5,5.57,1.64,11.33,2.73,16.81,4.62,15.25,5.26,31.47,7.97,45.6,16.17,11.2,6.51,23.67,8.92,35.79,12.53,7.83,2.33,15.89,4,23.5,6.88,9.53,3.61,19.71,4.62,29.22,8.26,4.17,1.59,8.83,1.89,13.27,2.78,3.54.71,6.96,2.01,10.39,2.91,6.78,1.78,13.5,4.12,20.59,4.68,1.71.13,2.79-.57,3.19-2.25.12-.53.21-1.07.3-1.61,1.67-10.66,6.04-20.5,9.41-30.64.76-2.3.88-3.31-1.74-4.5-9.58-4.35-20.26-5.79-29.38-11.28-13.67-2.73-25.54-10.23-38.66-14.52-11.32-3.7-22.11-9.03-33.2-13.48-8.4-3.36-16.41-7.44-24.19-12.04-2.48-1.47-5.16-2.77-7.92-3.59-8.36-2.49-16.28-6.17-24.16-9.71-6.21-2.79-12.71-5.06-18.59-8.79-4.7-2.98-9.86-5.28-14.4-8.62-3.22-2.37-6.57-4.55-9.77-6.94-2.58-1.92-4.19-4.79-6.44-7.09-5.68-5.8-11.38-11.7-15.06-19.18-1.67-3.39-4.33-6.23-6.32-9.49-1.9-3.12-5.9-3.34-8.81-5.15-3.67-2.28-7.93-3.23-12.28-3.75-.59,2.14.94,2.89,1.88,3.79,4.91,4.69,8.56,10.33,12.27,15.94,3.43,5.18,4.67,10.98,4.82,17.07.45,18.98-1.31,37.67-7.48,55.76-.35,1.03-.88,2.12-.82,3.15.6,9.85-4.07,18.72-5.12,28.26-.28,2.52-1.48,4.83-3.48,7.2-1.57-2.36-.84-4.7-.22-6.71,1.81-5.9,3.19-11.99,4.21-17.97,1.09-6.42,2.71-12.77,3.48-19.23.31-2.58,1.31-4.89,1.77-7.37,2.39-12.84,4.59-25.7,3.34-38.86-.07-.72-.1-1.46-.04-2.18,1.08-13.28-5.99-22.79-14.79-31.33-3.24-3.14-7.13-5.61-9.98-9.19-1.54-1.93-2.97-1.51-4.56.02-3.42,3.32-3.98,5.29-1.41,9.46,4.48,7.26,8.8,14.6,12.83,22.11,2.34,4.37,3.66,9.08,5.48,13.63.45,1.12.4,2.52.26,3.76-.53,5.05-1.18,10.08-1.8,15.12-.4,3.24-.43,6.47-.41,9.75.04,5.23-.61,10.49-1.24,15.7-.57,4.68-1.71,9.28-1.97,14.02-.07,1.2-.14,2.6-1.79,3.09-1.63-.85-1.44-2.47-1.17-3.78,3.01-14.49,1.1-29.38,3.75-43.9,1.23-6.73-.48-13.37-1.39-20-.27-2-1.2-3.78-2.18-5.54-3.88-6.95-7.49-14.03-12.46-20.34-3.62-4.58-6.44-9.66-7.77-15.47-.36-1.56-1.23-3.02-1.95-4.48-.53-1.08-.7-2.76-2.37-2.54-1.43.18-1.75,1.7-2.28,2.82-2.3,4.84-2.3,9.87-.76,14.87.6,1.94.9,3.85,1.1,5.84.92,9.2,1.97,18.39,2.9,27.59.25,2.52.23,5.07.34,7.61h-.01c-1.25-.52-2.09-1.47-2.47-2.74-2.58-8.71-4.87-17.51-4.29-26.68.3-4.75-.12-9.42-.39-14.12-.13-2.19-.89-4.5-3.01-5.51-5.68-2.69-10.03-7.01-14.2-11.46-1.69-1.8-3.1-2.36-5.14-1.36-4.23,2.07-8.53,4.03-12.58,6.42-3.81,2.25-3.96,3.18-1.12,6.87,8.87,11.53,13.89,25.39,22.59,37.02.42.56.6,1.31.88,1.99,2.31,5.71,4.19,11.59,6.3,17.38,5.21,14.31,9.99,28.77,14.84,43.21,1.91,5.67,4.46,11.33,5.08,17.17.66,6.2,3.23,11.4,5.52,16.86.12.95-.92,2.05.54,2.99.57-1.21.08-2.11-.55-2.99.05-4.83-1.05-9.49-2.47-14.04-.74-2.38-.78-4.5.3-6.68h0Zm-3.78-140.46c-.68,2.59-1.28,5.01-1.94,7.41-1.66,5.98.8,13.9,5.48,17.59,1.27,1,2.54,1.01,2.94-.66,1.17-5.02,3.14-9.78,1.9-15.35-1.09-4.92-3.32-7.71-8.37-8.98Z"/>
        <path class="cls-1" d="m347.88,206.08c-.65.63-1.41,1.18-1.91,1.91-1.22,1.8-2.14,3.82-3.5,5.48-1.3,1.58-4.06.11-5.59,2.59,4.5,1.62,8.66,3.85,12.86,6.02,1.3.67,2.69,1.14,3.45,2.5.35.62.67,1.19.23,2-2.85,5.24-2.9,6.81-1.37,11.01.51,1.4,1.26,2.53,2.04,3.74.99,1.55,1.43,3.35,1.16,5.21-.16,1.12-.65,2.03-1.86,2.43-3.4,1.13-8.98-.95-11.25-4.23.26-.24.5-.66.77-.68,5.89-.39,6.2-1.14,2.69-6.66-1.2.52-2.17,1.49-3.62,1.66-1.1.13-1.28,2.61-2.89,1.76-1.55-.82-1.01-2.56-.86-3.96.49-4.62,1.65-5.71,8.17-7.5-2.32-1.99-3.98-3.92-4.03-7.2-.04-2.52-6.15-3.44-8.32-1.39-3.96,3.73-3.94,8.73-4.06,13.63-.01.46.38,1.12.78,1.38,4.81,3.15,5.4,8.83,7.93,13.33,1.35,2.4,2.83,3.96,5.65,4.47,3.38.6,6.74,1.48,9.74,3.32.63.39,1.22.91,1.14,1.72-.12,1.08-1.03,1.56-1.92,1.55-5.22-.03-10.19-1.25-13.86-5.07-2.47-2.57-4.75-5.5-5.88-9.06-.78-2.47-2.35-4.51-3.83-6.56-2.01-2.78-3.04-5.74-2.46-9.19.34-1.99.04-3.93-.53-6.42-2.15,2.67-1.51,5.3-1.29,7.65.49,5.43.18,10.78-.28,16.2-.29,3.49.31,7.14.43,10.73.16,4.57-3.29,9.69-7.8,10.83-1.07.27-1.76,1.7-2.88,1.2-1.57-.69-1.93-.26-1.8,1.26.08.87.46,1.77-.06,2.67-1.59.38-1.61-1.01-2-1.88-3.61-7.97-5.41-16.53-8.11-24.8-1.07-3.28-2.21-6.37-4.38-9.24-3.38-4.46-4.6-10.16-4.38-15.47.22-5.14.04-10.49,1.61-15.58.58-1.87,4.53-9.94,5.66-11.37,2.34-2.97,5.15-5.54,6.65-9.19,1.11-2.7,4.27-3.58,6.1-5.98,3.67-4.79,8.36-8.78,13.14-12.54,1.02-.81,2.15-1.43,3.43-1.55,7.41-.7,14.53-2.67,21.62-4.81,1.28-.39,2.54-.29,3.7.32,3.72,1.97,7.65,1.25,11.6,1.37,5.23.15,10.41.29,15.6-.41.67-.09,1.76.06,2.04.49,1.95,3.08,4.97,2.17,7.72,2.27,3.25.12,6.05,1.18,7.85,4.05.59.94.83,2.11.15,3.09-.72,1.03-1.89,1-2.97.66-2.42-.77-4.76-1.99-7.23-2.33-4.65-.63-9.38-.39-14.07-.53-3.65-.11-7.41.58-11.07.21-3.52-.36-6.33.36-8.7,3-.57.64-1.31,1.27-2.4,1.27-1.58-1.52.76-3.38-.38-5.06-1.7.09-2.46,1.51-2.99,2.67-.78,1.72-2.5,3.71-1.06,5.52,1.64,2.07,3.92,1.21,5.91.03.61-.36,1.2-.84,2.35-.15-.57,2.81-1.34,5.7-2.59,8.47-.64,1.41-1.58,2.44-3.16,2.72-2.72.48-4.51,2.2-5.93,4.41-.93.68-2.04,1.33-2.4,2.5-.34,1.11.06,2.27,1.07,2.86,1.08.64,2.79.32,2.78-1.18-.01-1.36-.97-2.93-1.45-4.18,1.85.78,3.69,1.75,5.27-.54.52-.76,1.42-1.13,2.37-1.17,3.17-.13,4.84-2.07,5.94-4.78.31-.77.52-1.96,1.71-1.66,1.04.26,1.3,1.26.95,2.19-1.33,3.55.73,7.19-.4,10.76-.39,1.23.38,2.05,1.7,2.21,3.27.39,2.57,2.21,1.62,4.27-.82,1.77-1.45,3.61-2.35,5.89,2.79-.95,2.37-3.99,4.51-4.85,1.84.35,1.79,2.03,2.07,3.34.35,1.61.55,3.19,2.01,4.28,1.42,1.06,1.7,2.68,1.99,4.31.61,3.37-.51,6.7,0,10.12.26,1.74-1.11,3.54-2.89,4.27-2.92,1.2-5.23,3.09-6.96,5.92-2.5-1.71-1.97-3.79-1.83-5.62.12-1.65.57-3.35-.79-4.61-2-1.86-3.18-3.82-2.33-6.7.36-1.21-.87-1.13-1.71-1.47-3.67-1.48-7.26-3.17-10.91-4.7-1.81-.76-2.04-1.87-1.06-3.4,1.18-1.86,2.09-3.81,2.18-6.06,1.35-1.07,2.66-2.16,2.36-4.55-1.88,1.36-1.9,3.06-2.36,4.56Zm-6.54-28.35c-2.59,1.27-4.87,2.83-6.27,6.65,3.27-1.99,5.5-3.61,6.26-6.65,1.28-.38,2.69-.62,3.03-2.46-1.78.22-2.28,1.48-3.03,2.46Zm-18.54,14.17c-3.14,2.08-5.23,4.82-5.45,8.72-1.56,1.91-2.6,3.93-1.83,7.14,2.36-2.5,1.61-4.93,1.83-7.14,2.69-2.36,4.17-5.48,5.39-8.46,1.56-1.61,3.59-2.54,4.12-5.71-2.3,1.79-3.56,3.32-4.06,5.45Zm9.82,14.18c-2.12.74-2.42,3.03-3.77,4.43q-3.37,3.49-2.25,8.76c1.23-2.22,4.47-2.46,4.5-5.27.03-2.77,1.43-5.21,1.52-7.92,1.36-.49,2.43-1.21,2.54-3.07-1.73.65-1.86,2.06-2.53,3.07Zm2.18-28.2c2.45.01,4.24-.18,4.84-2.57.06-.24-.25-.81-.46-.86-1.9-.4-2.74,1.19-3.89,2.18-.11.1-.13.31-.48,1.25Zm9.01,13.2c1.23.1,4.19-1.16,3.25-2.87-1.22-2.24-3.36,1.65-3.25,2.87Zm2.93-9.29c.27-1.42-2.31-.66-2.49.43-.11.68.4,1.06,1.06.89.67-.17,1.08-.77,1.42-1.32Zm-32.75,41.33c-.22-.4-.37-.68-.53-.96-.3.44-1.31,1.47-.74,2.07.71.75,1.08-.72,1.27-1.11Zm36.42-39.23c-.41-1.52-2.4-.31-2.09.78.3,1.06,2.06.04,2.09-.78Zm-44.48,46.17c.45-.51.35-1.16.35-1.83,0-.31.1-1.26-.31-1.35-.59-.13-.45,1.18-.45,1.43,0,.66-.14,1.36.42,1.75Zm5.84,19.9c-.14-.46-.03-1.15-.81-1.03-.13.02-.27.63-.22.94.06.45-.04,1.16.75,1.05.14-.02.19-.62.29-.96Zm-8.63-18.75c-.12-.33-.3-.77-.47-1.21-.55.27-.54.8-.51,1.28.03.42-.11,1.05.62.97.13-.02.2-.57.36-1.03Zm-1.08-7.66c-.11-.33-.13-1.45-.8-.96-.61.45.12,1.71.3,2.17.18-.44.36-.88.5-1.22Zm4.3-2.3c.22.91,1.23,1.66,1.2.23,0-.38-.27-1.11-.75-1.09-.35.01-.34.54-.44.86Zm7.11-21.05c-.24-.3-1.03-1.11-.99-.1.03.78.61.32.99.1Zm16.81-26.16c-.15-1.24-.84-1.09-1.5-.22-.28.37-.54.9.1,1,.42.06,1.05-.55,1.39-.78Zm-11.12,46.55c-.2-.32-.34-.57-.49-.81-.28.35-1.42,1.41-.78,1.93.65.53,1.05-.77,1.27-1.12Zm20.05-24.42c-.62.15-.45.37-.39.97.5-.13.95-.52.39-.97Zm-7.62,2.01c.22-.26.72-.63.64-1.03-.08-.42-.37-.4-.68-.24-.49.26-.74,1.27.04,1.27Zm-22.24,27.87c-.71-.18-.97.69-.5,1.14.24.23.6.33.81-.02.22-.39-.16-.79-.31-1.12Zm19.27-32.96c.11,1,1.19.26,1.12-.41-.12-1.19-.9,0-1.12.41Zm-14.03,18.63c-.33-.55-1.07-.19-.81.38.32.72.81.11.81-.38Zm20.24.81c-.62.15-.45.37-.39.97.5-.12.94-.51.39-.97Z"/>
        <path class="cls-1" d="m159.21,705.48c-4.07-1.35-3.99-1.34-3.67-5.1.64-7.38,3.62-14.05,6.41-20.73,3.21-7.71,6.45-15.4,9.23-23.27,2.37-6.71,5.89-12.86,8.95-19.23.79-1.65,1.63-3.26,1.78-5.11.53-6.27,3.13-11.88,5.53-17.55.14-.33.43-.63.48-.97,1.54-10,6.61-18.73,10.08-28.03,1.39-3.73,2.94-7.42,4.71-10.99,4.69-9.41,8.54-19.21,13.14-28.65,2.34-4.8,5.36-9.34,8.54-13.65,2.96-4.02,4.62-8.62,6.57-13.04,3.89-8.8,7.79-17.59,12.61-25.91,3.73-6.46,6.28-13.52,10.28-19.79,5.62-8.82,8.76-18.68,12.35-28.36.19-.51.37-1.03.62-1.51.42-.8.81-1.8,1.88-1.71,1.4.11,1.59,1.34,1.63,2.42.04,1.26.09,2.59-.24,3.79-1.93,7.18-3.06,14.8-7.14,21.04-4.06,6.21-7.45,12.91-12.27,18.6-3.5,4.14-4.48,9.47-6.99,14.06-.81,1.49.21,3.17.79,4.7,3.75,9.84,6.87,19.89,9.82,30,3.96,13.55,5.63,27.41,5.39,41.44-.11,6.68-1.77,13.28-3.31,19.82-1.95,8.27-4.17,16.5-5.72,24.84-.56,3.02.24,6.33-.77,9.38,1.85.63,1.54-2.52,3.76-.86.95,2.29,1.06,5.1.86,8.27-.54,8.33-1.16,16.68-1.94,24.96-.75,8-.13,15.93-.17,23.85-.03,6.26.16,12.69,1.05,18.99.15,1.08.42,2.14.5,3.23.42,5.69.72,6.22,6.23,7.46,11.31,2.55,22.55,5.43,34.08,6.84,3.76.46,7.61.24,11.4.47,2.17.13,4.52.08,6.35,1.3,5.17,3.43,10.99,3.26,16.77,3.42,4.14.11,8.2-.18,12.34,1.16,4.13,1.34,8.75-.07,12.98.53,8.03,1.13,12.82-5.21,19.39-7.27,5.83-6.52,12.81-11.69,16.01-20.81,2.89-8.25,6.58-16.39,10-24.54,6.09-14.51,9.08-29.72,9.95-45.43.55-9.98.25-19.98.77-29.93.32-6.14,1.84-12.28,2.6-18.48,2,3.98.64,8.15,1.05,12.2.9,8.87-.68,17.65-1.26,26.47-.51,7.64-2.68,15.5.4,23.14.2.49.27,1.09.19,1.61-1.43,9.1-1.16,18.6-5.47,27.03-2.1,4.11-2.67,8.66-4.63,12.76-4.08,8.54-6.45,17.69-9.28,26.67-.89,2.82-2.69,5.19-3.56,8.1-.74,2.5-2.97,4.62-6.37,3.79-1.09-.27-2.19-.08-2.92,1.01-.08,1.21.84.82,1.47.88,2.05.21,2.07,1.4.91,2.51-1.88,1.8-4.4,2.61-6.87,3.08-11.98,2.27-24.05,3.29-36.14,1.18-12.3-2.15-24.75-2.86-37.09-4.54-7.34-1-14.82-1.55-21.96-3.87-7.3-2.37-14.91-3.17-22.45-4.28-4.61-.68-5.87.63-5.78,5.41.05,2.35.26,4.73.73,7.03,1.88,9.21,3.78,18.42,5.9,27.58.58,2.52.43,5.05.92,7.55.23,1.2-.08,2.24-1.5,2.36-1.23.11-2.17-.56-2.44-1.73-.78-3.35-2.14-6.75-2.02-10.09.28-8.23-2.68-15.68-4.68-23.37-1.1-4.23-2-8.44-2.22-12.84-.25-4.89-.76-9.77-1.4-14.62-.82-6.2.12-12.3.53-18.44.23-3.43.07-6.88-.03-10.32-.08-2.9-.4-5.78.29-8.67.28-1.18.33-2.66-.13-3.74-2.78-6.5-1.72-13.23-1.23-19.88.28-3.8.9-7.61.59-11.41-.86-10.34,1.41-20.27,3.91-30.11,5.26-20.7,5.12-41.32.05-61.98-2.85-11.6-5.3-23.31-8.93-34.66-2.04-.17-2.28,1.45-2.67,2.45-2.26,5.79-5.29,11.28-8.7,16.31-6.79,10.03-10.98,21.22-16.11,32.01-3.82,8.02-7.39,16.18-11.45,24.04-5.51,10.67-8.33,21.93-11.03,33.44-1.56,6.63-4.54,13.02-7.5,19.22-6.1,12.78-11.76,25.71-17.11,38.83-3.75,9.19-6.12,18.56-7.61,28.27h0Zm217.05,26.75c1.24-.3,1.24-2-.16-1.73-1.28.25-1.23,1.87.16,1.73Z"/>
        <path class="cls-1" d="m112.99,646.5c.96-4.33,1.44-7.54,2.41-10.59,2.09-6.59,3.54-13.33,4.8-20.09.59-3.19,3.35-6.14,1.37-9.73-.14-.25.5-1.32.68-1.3,4.25.58,2.57-1.71,1.77-3.57-.55-1.29-.12-2.47.29-3.69,5.56-16.48,10.59-33.16,16.82-49.37,4.38-11.41,8.93-22.81,15.38-33.42,7.72-12.71,13.15-26.65,18.64-40.47,1.47-3.7,2.21-7.66,3.46-11.46,3.37-10.31,6.32-20.76,9.47-31.14,1.63-5.38,4.09-10.63,4.83-16.12,1.18-8.73,4.42-16.81,6.49-25.23,2.6-10.56,5.17-21.15,7.18-31.83,1.5-7.98,6.75-12.39,13.49-14.94,8.13-3.07,16.02-6.86,24.51-8.95.53-.13,1.09-.26,1.53-.57,8.14-5.67,18.12-5.73,27.09-8.85,1.83-.64,3.91-.91,5.9-.22.71.25,1.36.63,1.39,1.48.02.83-.52,1.39-1.28,1.51-4.56.74-8.42,3.33-12.74,4.71-10.37,3.31-20.83,6.37-31,10.22-6.86,2.59-14.28,4.21-19.89,9.68-2.6,2.53-4.5,5.21-5.06,8.74-1.06,6.62-2.72,13.11-3.78,19.75-1.32,8.33-3.98,16.51-7.72,24.18-1.07,2.19-1.75,4.37-1.89,6.74-.62,9.97-2.12,19.64-6.51,28.87-2.78,5.84-3.91,12.45-6.11,18.59-2.63,7.32-4.48,14.87-7.82,21.99-2.52,5.37-3.71,11.35-6.46,16.71-2.81,5.46-5.28,11.11-8.16,16.53-1.48,2.79-1.7,5.97-3.11,8.68-1.13,2.17-.67,5.78-4.62,5.8-.56,0-.97.75-.78,1.23,1.95,4.99-1.45,8.82-3.34,12.56-4.04,8.02-6.6,16.48-9.45,24.9-1.61,4.75-3.35,9.47-5.75,13.92-1.74,3.22-1.48,6.95-2.64,10.41-4.37,13.08-8.26,26.31-12.25,39.51-.89,2.94-1.3,6.03-2.23,8.95-.64,2.01-1.6,4.01-4.91,5.89Z"/>
        <path class="cls-1" d="m670.52,527.97c1.41-1.02,2.64-.62,3.45-.14,5.52,3.31,11.82,3.27,17.83,4.02,6.81.85,12.33,3.99,17.51,8.02,3.53,2.75,7.86,4.61,10.21,8.75.17.3.49.56.8.72,1.68.89,3.69,2.85,5.22.74,1.43-1.97-.42-3.64-2.2-4.79-3.58-2.32-6.28-5.47-8.58-9-.41-.62-.7-1.33-.15-1.98.55-.65,1.31-.54,1.98-.19,1.95,1.01,3.56,2.47,5.26,3.84,7.26,5.84,15.86,8.57,24.82,10.34.64.13,1.37-.22,2.88-.49-3.02-3.14-6.87-3.36-9.71-5.28-3.01-2.03-5.99-4.09-8.96-6.18-2.95-2.07-5.79-4.27-7.75-7.41.49-.33.9-.74,1.02-.67,4.58,2.85,9.74,4.71,13.96,8.18,4.11,3.39,9.37,4.69,13.81,7.5.55.35,1.42.22,2.14.29,1.15.11,2.35.02,2.66-1.28.35-1.44-.47-2.58-1.85-2.88-3.95-.84-7.61-2.34-11.07-4.4-5.6-3.33-11.26-6.57-16.9-9.84-1.1-.64-2.18-1.32-2.89-2.43-.61-.96-1.03-2-.25-3.01.68-.88,1.66-.58,2.5-.23,6.88,2.83,13.78,5.61,20.59,8.58,2,.87,3.92,1.63,6.58,1.95-.79-3.02-2.88-4.2-4.57-5.67-5.26-4.6-11.59-7.46-17.75-10.52-7.64-3.79-14.85-8.37-22.64-11.88-4.34-1.95-4.59-5.95-1.02-9.05,1.57-1.36,3.27-2.13,5.38-2.32,3.07-.27,6.14-.68,9.15-1.29,1.56-.32,3.07-1.09,4.48-1.88,1.17-.66,1.88-1.86,1.39-3.23-.63-1.75-2.35-2.04-3.61-1.33-4.76,2.69-10.33,1.8-15.25,3.69-.98.37-2.17.54-3.2.37-6.84-1.12-12.81,1.47-18.8,4.15-2.23,1-5.5,3.58-6.78,1.38-1.55-2.68,2.78-3.32,4.5-4.75,3.08-2.58,6.83-3.77,10.94-4.38,6.39-.95,12.74-1.91,19.21-2.24,2.95-.15,6.02-1.05,8.88-2.4,3.4-1.6,5.89-.39,7.35,3.08,2.2,5.23-1.19,11.37-7.01,12.43-3.03.55-6.12.76-9.18,1.1-1.36.15-2.59.64-2.83,2.09-.2,1.24.93,1.88,1.81,2.49,1.35.92,2.67,1.96,4.15,2.59,7.03,3.02,13.23,7.51,19.94,11.02,6.19,3.24,11.72,7.19,17.01,11.62,1.27,1.07,2.42,2.18,3.24,3.62.45.79,1.24,1.86.67,2.5-3.07,3.44-.16,6.37.73,9.38,1.07,3.66,1.11,4.28-2.14,5.18-2.39.66-4.01,1.57-5.32,3.91-1.84,3.31-3.51,3.57-7.41,2.42-4.03-1.2-7.68-3.19-11.33-5.25-2.43-1.37-3.06-.9-3.38,1.92-.08.72.03,1.46-.1,2.17-.77,4.11-2.9,5.08-6.99,4.09-2.69-.65-4.48-2.58-6.25-4.09-4.61-3.92-10.33-5.97-14.95-9.73-5.87-4.78-12.33-6.97-20-6.57-5.16.27-8.16-3.78-11.26-7.38Z"/>
        <path class="cls-1" d="m98.14,750.18c1.15-1.38,2.3-2.76,3.84-4.61,1.56,4.02-1.27,6.86-1.49,10.06-.25,3.56-1.66,7.04-2.51,10.57-.8,3.35-2.06,6.64-1.93,10.13.13,3.37-1.5,6.64-.37,10.19,2.46-3.59,4.59-7.29,5.9-11.39,1.87-5.88,3.57-11.81,5.38-17.71.37-1.2.79-2.41,1.38-3.52.35-.67,1.2-.9,1.87-.43.37.26.77.98.66,1.32-1.31,3.86-.46,7.41,1.3,10.89.49.97-.46,1.61-.79,2.41-3.13,7.52-3.72,15.41-3.28,23.44.06,1.1.31,2.25,1.59,2.56,1.21.29,2.11-.45,2.77-1.34,2-2.66,2.85-5.86,3.91-8.93.72-2.06,1.4-4.1,2.52-6,2.77-4.68,2.79-10.14,3.58-15.23.96-6.16,2.27-12.09,4.63-17.82,1.23-2.98,3.19-5.62,3.22-9.13.03-2.84,2.77-3.48,4.91-4.41.85-.37,1.26.18,1.81.68,2.88,2.64,4.54,5.74,3.23,9.68-1.96,5.92-2.7,12-2.91,18.19-.05,1.36.27,3.5-1.63,3.47-1.83-.03-1.47-2.15-1.59-3.54-.46-5.12,1.07-10.09,1.22-15.17.03-1.06.53-2.15-.44-3.38-2.35.09-3.02,2.06-3.73,3.82-1.91,4.71-4.05,9.36-5.44,14.22-1.12,3.95-1.18,8.19-1.89,12.27-1.54,8.79-3.78,17.28-10.12,24.12-1.81,1.96-3.61,2.98-6.19,2.07-2.53-.89-2.85-3.06-2.87-5.32-.03-3.07,0-6.15,0-10.63-1.8,2.77-2.88,4.46-3.98,6.13-1.5,2.29-4.27,3.47-6.79,2.92-3.21-.7-5.74-2.82-5.41-5.84.86-7.88-2.66-15.34-1.84-23.17.07-.68,0-1.59-.39-2.08-3.79-4.7-1.43-9.35.24-13.83,1.51-4.07,3.57-7.94,5.49-11.85,3.85-7.84,6.92-15.97,9.2-24.4.49-1.83.87-3.69,3.49-3.02l.02.02c-1.43,13.39-6.93,25.93-13.43,37.58-1.71,3.05-3.56,6.21-2.68,9.84,1.39-2.75,4.69-3.85,5.93-6.72.57-1.31,2.05-2.56,3.51-1.47.6.45.52,1.09.43,1.76-.12.87-.23,1.74-.31,2.61-.8,1.07-1.98,1.98-1.49,3.76,1.53-.98,1.24-2.48,1.48-3.77Zm-5.78,21.05c.27-.18.7-.3.76-.53.19-.72,1.06-1.86-.12-2.05-.54-.09-1.25,1.46-.64,2.58Z"/>
        <path class="cls-1" d="m358.78,288.95c-.32-.16-.67-.29-.97-.49q-3.46-2.43.04-4.75c.41-.28.62-.86.92-1.3.93.16,1.8.17,1.93-1.08.02-.15-.1-.42-.2-.45-1.25-.27-1.24.92-1.73,1.53-1.98-2.43-2.3-6.36-.66-8.17,1.26-1.39,2.74-.24,4.09-.28,2.04-.06,4.11.17,4.21,2.99-.4.39-2.27,1.69-1.6,2.41.86.92,1.48-2.04,1.59-2.42,1.75-2.75,5.35-4.27,5.65-8.21-3.69,1.24-3.7,1.25-3.98-1.86-.1-1.08-.46-2.31-.09-3.22,1.99-4.84.17-9.1-1.55-13.5-3.75-9.57-2.48-12.06,7.44-15.25,1.35,2.85,1.79,5.87.86,8.85-.7,2.25.39,3.21,2.12,3.46,4.65.67,5.13,4.89,6.52,7.94,1.15,2.52.89,5.65,3.37,7.71.99.82.73,2.02-.16,2.87-.78.74-1.72,1.3-2.59,1.95-.78.58-1.41,1.25-.73,2.25.55.8,1.4,1.17,2.36.96.5-.11.98-.44,1.41-.76,1.24-.93,2.85-3.41,3.68-2.25.88,1.23,2.64,1.51,2.94,2.98.34,1.69,1.22.74,1.95.52.74-.23,1.97,0,1.72.48-1.49,2.85,2.25,3.9,1.97,6-.66,4.99,2.41,6.13,6.28,6.77.44.07.79.68,1.18,1.05,0,0,0,0,0,0-1.15,1.76-4.41,1.42-4.36,4.37-.36,0-.73,0-1.09,0-.22-.28-1.68-2.14-1.99-.96-.22.84,1.53.89,1.99.95-.27,2.77-1.87,4.47-4.36,5.46-1.04-.11-2.08-.23-3.02-.33-.5-1.44.98-1.51,1.13-2.34.25-1.34,1.59-2.71.41-4.01-1.19-1.31-2.66-.34-3.98.12h0c0-.72,0-1.45,0-2.18.74-.48,3.28-1.71,2.15-2.94-1.73-1.9-2.07,2.22-2.14,2.95-2.98-.18-5.58,2.66-8.73,1.09,3.97-3.97,3.96-9.28,4.98-14.31-2.15-.25-2.85.76-3.55,2.57-.63,1.64-3.14-.57-4.2,1.16-.36.59-.63,1.25-.9,1.9-.92,2.25-2.36,3-4.22,1.98-1.84-1.01-2.67-2.44-1.17-4.41,1.57-2.06,3.16-4.11,4.81-6.26-2.58-.87-3.78.42-4.72,2.09-1.33,2.35-2.86,4.65-3.77,7.16-.84,2.31,2.45,3.18,2.53,5.63.08,2.58,1.65.47,2.57.3h0c0,1.82,0,3.64,0,5.46-1.46.73-2.91,1.46-4.37,2.18-.33-2.63-3.47-3.61-3.68-6.33-.07-.97-.45-1.82-1.64-1.45-1.02.32-1.22,1.3-1.02,2.2.74,3.39,3.13,4.97,6.34,5.57-.12,2.35,1.24,2.2,2.67,1.44,1.39-.73,1.52-2.23,1.68-3.62,2.44.03,4.3-1.65,6.55-2.18.72,2.18,1.45,4.36,2.17,6.55h0c-.98-.39-1.99-.73-2.94-1.18-1.8-.85-3.3-.49-3.69,1.48-.63,3.19-3.41,4.33-5.38,6.25-.36.36-.71.71-1.07,1.07-1.3-7.01-7.6-9.79-12.01-14.17,1.18-.72,2.83-1.2,1.66-3.22-1.25.82-1.33,2.08-1.66,3.22Zm19.24-12.38c.79-1.38-1.14-.9-1.5-.13-.18.39-.1.7.34.78.48.09.81-.41,1.16-.65Zm-6.76-20.51c-.35.32-.56,2.4.29,2.16.49-.13.57-2.39-.29-2.16Z"/>
        <path class="cls-1" d="m406.76,285.68c.35.02,1.01,0,1.02.07,1.34,7.89,5.99,13.44,12.41,17.73.44,1.83-2.58,1.4-2.06,3.53,4.39.51,6.53-3.27,9.55-5.21,1.07-.69.44-2.37.21-3.62-.67-3.61-.76-7.27-.13-10.84.52-2.95.29-5.35-2.21-7.29-2.16-1.68-1.5-2.98.71-3.96.66-.29,1.32-.62,1.9-1.04.76-.56,1.26-1.36,1.11-2.33-.2-1.3-1.24-1.02-2.13-.99-4.59.13-9.27-1.57-13.95,1.22,1.56-5.17,2.72-6.34,6.97-6.44,3.02-.07,5.93-.84,9.13-.05,2.97.73,5.61-1.92,8.36-3.16.83-.38,1.63-1.15,2.31-.03.52.87.09,1.81-.63,2.42-.68.57-1.48,1.06-2.31,1.4-2.08.86-2.97,2.56-3.5,4.56-.19.7-.16,1.5-.5,2.11-2.5,4.57-1.49,8.62.73,13.17,3.23,6.61-.97,20.24-6.88,24.87-1.01.79-2.1,1.72-3.41,1.48-7.2-1.34-14.04,1-21.02,1.87,0,0-.07-.06-.07-.06-.42-1.09-.4-2.17.04-3.25,2.1-.26,4.24-.47,6.05-1.68.63-.42.65-1.23.23-1.88-.32-.49-.94-.62-1.35-.23-1.52,1.43-4.03,1.57-4.92,3.81-1.54.1-3.07,1.37-4.83-.08.42-2.48,3.41-3.57,3.69-6.5-2.24.09-4.31.54-6.22,1.54-.82.43-1.49,1.14-2.3.15-.57-.7-1.45-2.03-.96-2.34,2.66-1.69,1.42-6.19,5.16-6.96,3.42-1.16,6.53-2.68,7.63-6.54,1.94-1.33,2.2-3.34,2.19-5.45h0Zm16.98,22.82c1.91-.59,2.71-1.41,2.95-3.02-1.67.28-2.3,1.21-2.95,3.02Zm7.45-16.48c-.53,1.74-.55,3.06.1,5,.63-1.98.77-3.3-.1-5Zm-23.87,1.03c-.3.37-.61.49-.36.97.14.27.51.53.83.41.9-.35-.11-1.12-.46-1.38Zm-1.33,5.1c-.69-.61-.67-.61-1.33.02.77.67.69.69,1.33-.02Z"/>
        <path class="cls-1" d="m426.47,227.93c-6.39.5-10.99-3.88-16.66-2.66-1.99-2.76-5.3-.78-8.18-2.16,1.54-3.22,3.71-4.87,7.17-4.8,7.44.16,11.79,1.54,18.49,6.26-.23-6.51-2.44-12.03-3.49-17.74-1.11-6.03-4.21-11.11-7.4-16.18-3.1-4.93-8.79-7.92-10.81-13.85.73-.17,1.21-.43,1.36-.3,7.26,6.33,14.37,12.91,17.47,22.35,2.87,8.73,5.28,17.63,6.14,26.85.17,1.83.3,3.66-.37,5.38-1.38,3.53-.63,6.76,1.12,9.91,2.64,4.76,5.27,9.53,7.9,14.29.52.95,1.12,1.88,1.51,2.88.15.4,0,1.19-.31,1.44-.69.57-1.42.12-1.78-.53-3.84-6.99-8.78-13.37-11.74-20.85-1.2-3.04-1.86-6.23-.42-10.31Z"/>
        <path class="cls-1" d="m438.24,851.55c1.43.91.92,2.32.77,3.46-.96,7.56-.91,15.22-2.47,22.71-2.01,9.66-1.52,19.5-1.96,29.26-.23,5.23-1.57,10.1-3.68,14.66-3.51,7.59-6.19,15.47-9.3,23.2-.14.34-.16.75-.37,1.02-3.77,4.92-4.22,10.97-5.7,16.66-.27,1.03-.48,2.41-1.9,2.13-1.35-.27-1.33-1.68-1.1-2.71.9-4.07,1.67-8.17,3.38-12.03,4.24-9.61,7.63-19.59,12.55-28.9,2.84-5.37,2.65-11.3,2.79-16.95.42-16.72,2.75-33.21,5-49.72.17-1.22.26-2.62,2-2.79Z"/>
        <path class="cls-1" d="m350.36,868.28c-.18,2.31-.2,4.64-.57,6.9-.37,2.28-.76,4.33,2.04,5.39,1.24.47,1.23,1.66,1.12,2.78-.13,1.26-.06,2.6-.48,3.76-3.27,9.1-3.31,18.88-6,28.13-.97,3.35.31,7.16-.21,10.77-.33,2.33-.47,4.69-.76,7.02-.09.75-.57,1.38-1.42,1.31-.84-.07-1.22-.81-1.31-1.53-.12-.88-.3-1.91.02-2.67,1.57-3.68.8-7.55.89-11.3.28-10.55,2.01-20.8,5.32-30.8.28-.85.48-1.74.56-2.63.07-.68.13-1.45-.8-2.26-1.77,1.81-3.03,3.97-3.15,6.47-.31,6.67-3.1,12.64-5.05,18.84-1.47,4.67-3.11,9.23-2.97,14.27.07,2.73-1.45,5.19-2.42,7.71-.19.5-.82.84-1.34.57-.41-.22-.92-.77-.91-1.16.01-1.25.11-2.54.42-3.75,2.41-9.44,3.63-19.23,8.12-28.07.93-1.83.6-3.97,1.25-5.82,2.57-7.35,4.54-14.84,5.94-22.49.12-.65.36-1.46,1.71-1.44Z"/>
        <path class="cls-1" d="m159.22,705.47c1.8,3.97.28,8-.5,11.72-1.7,8.16-2.85,16.43-4.68,24.56-.97,4.31-1.45,8.62-.85,12.94.71,5.12-2.17,9.35-3.28,13.97-.69,2.86-4.05,5.1-7.63,5.27-4.57.23-6.79-2.34-6.71-7.46,1.12-.24,1.75.52,2.14,1.3,1.4,2.76,3.49,3.26,6.37,2.56,2.97-.71,3.86-2.48,4.4-5.34.76-3.96,1.33-7.85.89-11.85-.9-8.28.92-16.25,3.15-24.09,1.06-3.72,1.59-7.49,1.92-11.23.28-3.19.54-6.01,2.89-8.44.95-.99,1.27-2.58,1.87-3.9,0,0,0,0,0,0Z"/>
        <path class="cls-1" d="m378.36,477.63c-2.42-.48-3.86-2.4-4.63-4.29-2.66-6.54-8.12-11.03-11.76-16.85-3.93-6.28-9.57-11.3-13.47-17.67-6.51-10.62-13.27-21.09-19.82-31.67-2.04-3.29-5.36-5.84-6.09-10.42,5.98,3.78,9.87,9.14,12.83,14.67,4.03,7.52,9.4,14.18,13.21,21.78,4.18,8.34,10.86,14.87,16.09,22.45,4.41,6.39,8.9,12.72,12.91,19.38.45.75.55,1.71.81,2.57l-.08.07Z"/>
        <path class="cls-1" d="m407.41,537.34c2.53,5.46,3.25,11.19,4.26,16.81,1.95,10.87,4.61,21.56,8.04,32.06,3.27,10.03,5.19,20.33,6.46,30.77.08.69.05,1.44-1.15,2.09-2.11-7.61-5.34-14.76-6.37-22.61-.57-4.3-1.53-8.55-2.39-12.81-.36-1.79-.88-3.74-2.51-4.68-2.77-1.6-2.79-4.05-2.5-6.61.36-3.13.09-6.27-.91-9.13-2.55-7.31-2.22-15.01-3.51-22.48-.17-1.01-.37-2.16.57-3.41Z"/>
        <path class="cls-1" d="m260.08,908.96c-.82-2.94-1.2-5.75-1.07-8.64.26-6.09,1.03-12.27.35-18.28-1.32-11.59-.53-23.18-.92-34.75-.28-8.15,1.24-16.28.13-24.44-.09-.68.13-1.43.34-2.11.16-.52.64-1.01,1.22-.84.45.13,1.09.56,1.16.94.26,1.6.46,3.23.45,4.85-.08,12.68-.27,25.36-.3,38.04-.01,4.86-.2,9.72,1.06,14.53.74,2.8.49,5.78-.09,8.65-.81,3.96-.81,7.92-.31,11.91.45,3.56.17,7.03-2.01,10.15Z"/>
        <path class="cls-1" d="m108.32,701.9c-7.22,2.73-9.79,1.07-9.85-6.06-.02-1.79.39-3.59.75-5.36,2.8-13.67,6.53-27.05,12.21-39.83.37-.84.81-1.82,1.9-1.5,1.12.32.99,1.42.73,2.26-2.08,6.55-4.06,13.13-6.39,19.59-.93,2.58-1.86,5.18-2,7.85-.24,4.78-1.59,9.24-3.01,13.73-1.6,5.09-.87,6.32,4.53,8.29.3.11.5.45,1.12,1.04Z"/>
        <path class="cls-1" d="m389.31,417.61c3.73,9.81,5.78,19.99,6.74,30.41.51,5.56.99,11.13,1.62,16.67.33,2.92.2,5.75-.74,8.53,0,0,0,0,0,0-1.21-.63-1.92-1.61-2.07-2.99-.39-3.59-.88-7.18-1.19-10.78-.94-10.98-1.56-22-3.99-32.81-.66-2.93-1.93-5.95-.4-9.02h0Z"/>
        <path class="cls-1" d="m412.64,226.87c2.54.16,4.76,1.11,6.14,3.52,1.42,2.49.79,4.84-.53,7.13-1.09,1.89-2.63,2.29-4.56,1.36-1.99-.96-3.45-2.55-4.91-4.13-1.43-1.53-2.33-3.26-1.25-5.35,1.04-2.01,2.91-2.5,5.12-2.53Z"/>
        <path class="cls-1" d="m257.49,777.23c2.29.84,2.04,2.29,2.03,3.46-.07,6.53,1.19,12.97,1.01,19.54-.13,4.82,1.55,9.64.73,14.57-.14.87.06,2.01-1.2,2.02-1.13.01-1.48-1.03-1.47-1.92.05-9.79-2-19.52-1.1-29.31.25-2.68-.88-5.33,0-8.36Z"/>
        <path class="cls-1" d="m361.12,840.57c.65,3.45-.56,6.17-1.2,8.87-1.87,7.91-3.75,15.82-5.02,23.86-.26,1.62.23,4.96-2.53,4.31-2.03-.48-.44-3.12-.13-4.8.8-4.25,1.74-8.48,2.4-12.75.84-5.38,3.26-10.35,3.92-15.78.14-1.2.53-2.51,2.57-3.7Z"/>
        <path class="cls-1" d="m415.48,526.55c.03,4.42-1.96,7.39-4.86,7.26-2.41-.11-4.54-3.31-4.74-7.12-.19-3.56,2.71-7.98,5.23-7.99,2.39,0,4.35,3.5,4.38,7.85Zm-2.77.26c.03-2.04-.94-4.3-1.93-4.25-2.15.12-2.34,1.93-2.48,3.51-.19,2.2,1.23,4.44,2.49,4.08,1.72-.49,1.71-2.09,1.92-3.33Z"/>
        <path class="cls-1" d="m437.65,843.54c-1.58-8.34,2.36-14.86,2.73-21.85,2.02,3.64.38,7.22-.21,10.69-.57,3.37.24,7.1-2.53,11.16Z"/>
        <path class="cls-1" d="m421.09,252.66c.99,6.8,1.31,7.11,7.84,8.01,1.04.14,2.21.08,2.85,1.95-3.8-.27-7.65,2.43-10.79-1.65-1.95-2.54-2.03-4.76.09-8.31Z"/>
        <path class="cls-1" d="m369.95,309.8c.8,2.01-.51,4.4,1.34,6.02.66.58.89,1.63-.33,2.09-.83.32-1.65.42-2.41-.42-2.18-2.42-1.88-4.59,1.39-7.7Z"/>
        <path class="cls-1" d="m370.79,303.12c.36-.36.71-.71,1.07-1.07,3.04,4,3.23,5.23.71,9.59.37-3.69-1.15-5.96-1.78-8.52Z"/>
        <path class="cls-1" d="m384.95,487.4c3.1,2.35,4.18,5.94,5.77,9.23-3.4-2.16-5.04-5.41-5.77-9.23h0Z"/>
        <path class="cls-1" d="m378.44,477.56c2.52,3.05,6.08,5.4,6.5,9.84,0,0,0,0,0,0-2.91-2.78-5.92-5.48-6.59-9.77,0,0,.08-.07.08-.07Z"/>
        <path class="cls-1" d="m377.31,317.31c2.26-.95,4.1-2.71,6.55-3.28-.37,1.09-.73,2.18-1.1,3.27,0,0,0,0,0,0-1.46.6-2.93,1.19-4.39,1.82-.96.42-1.7.31-2.16-.73.36-.36.72-.72,1.08-1.08Z"/>
        <path class="cls-1" d="m383.75,314.12c.42-2.34.81-4.57,1.23-6.93,3.26,2.62,3.14,3.2-1.23,6.93Z"/>
        <path class="cls-1" d="m377.31,317.31c-.36.36-.72.72-1.08,1.08-2.14-.85-1.97-2.34-.99-3.92.48-.78,1.41-1.34,2.31-.98,1.24.5.41,1.48.21,2.26-.13.52-.3,1.04-.45,1.56Z"/>
        <path class="cls-1" d="m119.99,704.2c-2.36-.43-4.72-.87-7.07-1.3,2.61-1.42,4.94-.69,7.25.19l-.18,1.11Z"/>
        <path class="cls-1" d="m358.72,307.21c-1.34-.99-.72-2.07-.54-3.05.12-.69.43-1.52,1.26-1.4,1.15.16,1.14,1.15.95,2.04-.18.87-.53,1.68-1.68,2.41Z"/>
        <path class="cls-1" d="m131.47,705.51c-2.03,1.12-3.79.15-5.58-.66,1.93-.73,3.8-.63,5.58.66Z"/>
        <path class="cls-1" d="m387.14,408.89c1.89,2.62,2.24,5.62,2.18,8.72,0,0,0,0,0,0-2.84-2.38-2.57-5.53-2.18-8.72h.01Z"/>
        <path class="cls-1" d="m414.69,504.12c-.51-.9-.89-1.28-.81-1.48.54-1.5,1.18-2.97,2.16-5.37.66,3.15-.16,4.8-1.35,6.86Z"/>
        <path class="cls-1" d="m360.73,837.85c-.11-2.68,1-4.26,1.88-5.91.53,2.08.6,4.02-1.88,5.91Z"/>
        <path class="cls-1" d="m312.98,384.9c2.61.15,4.37,1.23,4.8,4.64-2.56-1.09-3.15-3.45-4.81-4.63,0,0,0,0,0,0Z"/>
        <path class="cls-1" d="m438.85,847.73c-.47.33-.95,1.03-1.59.55-.42-.31-.31-.86-.13-1.28.64-1.48,2.13-.75,1.72.73Z"/>
        <path class="cls-1" d="m391.27,298.15c-.33.29-.6.73-1.03.86-.54.17-.85-.12-.68-.65.23-.72,1.89-1.58,1.71-.21Z"/>
        <path class="cls-1" d="m391.49,288.95c-.36,1.2-.57,2.5-1.98,3.02-.71-1.93,1.11-2.16,1.99-3.02,0,0,0,0,0,0Z"/>
        <path class="cls-1" d="m383.86,295.49c.64.13,2.88.44,1.67,1.66-1.22,1.22-1.54-1.03-1.66-1.66,0,0,0,0,0,0Z"/>
        <path class="cls-1" d="m104.68,706.55c.18-.39,1.18-2.46,1.74-1.25.39.83-1.24,1.13-1.72,1.27,0,0-.02-.02-.02-.02Z"/>
        <path class="cls-1" d="m141.26,706.22c-.29.22-.62.67-1.04.57-.34-.08-.45-.32-.33-.63.23-.6,1.3-.7,1.37.05Z"/>
        <path class="cls-1" d="m352.03,861.36c-.17,1.02-1.12.14-.98-.52.25-1.18.82.07.98.52Z"/>
        <path class="cls-1" d="m375.13,285.68c.78-2.28,2.86-1.67,4.59-2.15.59,1.78.51,3.42-1.21,4.19-1.75.78-2.31-1.22-3.38-2.03h0Z"/>
      </g>
    </g>
  </g>
</svg>