<?xml version="1.0" encoding="UTF-8"?>
<svg xmlns="http://www.w3.org/2000/svg" viewBox="750 0 1200 1117.09">
  <defs>
    <style>
      .cls-1, .cls-2 {
        stroke-width: 0px;
      }

      .cls-2 {
        fill: #fff;
      }
    </style>
  </defs>
  <g id="Arrière-plan_Image" data-name="Arrière-plan Image">
    <path class="cls-2" d="m1490.18,1117.09H0V0h1490.18v1117.09Z"/>
  </g>
  <g id="Nouveau_groupe" data-name="Nouveau groupe">

    <g id="Final_Jojo_Image" data-name="Final Jojo Image">
      <g>
        <path class="cls-1" d="m1114.47,250.74c1.27,1.8,1.12,3.73.51,5.7-1.41,4.56-3.44,8.75-7.38,11.69-1.36,1.01-2.09,2-.86,3.56-.67.64-1.35,1.28-2.03,1.92-1.42.3-2.55,1.04-3.33,2.28l.08-.04c-.84-1.34-1.25-3.37-3.63-1.67-.76.54-1.98.43-2.99.62.38-.75,1.57-1.22,1.07-2.24-.26-.53-.98-.21-1.37.17-.84.82-.79,1.54.36,2.04-.34.43-.61,1.13-1.02,1.23-3.82.92-7.67,1.73-11.51,2.57l-.36-1.09c1.87-.96,3.8-1.81,5.58-2.9,2.56-1.58,5.9-2.38,6.4-6.18.11-.82,1.07-.78,1.79-.86,3.09-.37,3.27-3.34,4.53-5.28.34-.53-.65-1.17-1.29-1.54,3.11-3.11,7.32-6.41,7.04-11.29-1.63,2.02-3.37,3.95-5.19,5.81-1.56,1.58-3.37,3.14-3.76,5.45-1.8.4-2.27,2.11-3.24,3.32-1.1-.85-2.23-.61-3.36-.1-1.82,0-3.3.65-4.35,2.17l.05-.03c-2.3-.28-4.16,1.97-6.55,1.16l-.08-.1c2.2-2.29,5.13-3.32,7.95-4.49,8.9-3.68,17.62-13.44,20.79-24.02-2.18.64-2.69,3.22-4.74,3.46l.05.03c.16-1.7.29-1.99-1.06-2.6-1.1-.49-.83-1.07-.54-1.56,1.87-3.12,2.39-6.83,4.11-9.93,1.3-2.33,1.48-4.32.73-6.64.82-1.24,1.53-3.68,1.11-5.16-.43-1.53-2.84-1.08-3.89-.52-1.29.69-2.44,2.44-.62,3.19,1.49.61,2.83.78,3.44,2.52-2.32.14-2.89,1.49-2.94,3.66-.15,6.99-4.64,11.86-8.72,16.85-2.26,2.76-4.83,5.27-7.27,7.88-.82.88-1.39,2.18-3.26,1.91-.12-2.77,3.1-3.83,3.51-6.55-3.39-.33-4.56,3.65-7.77,3.7-.99-4.89,5.7-4.38,5.64-8.62-.06-4.21,6.72-3.31,6.68-8.11-6.93,1.17-13.74,3.64-21.26.97,1.75-1.83,3.69-1,4.94-2.1.55-.49,1.15-.92,1.18-1.7.03-.84-.55-1.55-1.25-1.51-2.7.15-4.94-2.43-7.85-1.23-.71.29-1.76-.14-2.62-.38-1.07-.3-2.22-.78-1.96-2.15.25-1.29,1.53-1.35,2.58-1.57,1.56,2.32,3.96,2.13,6.33,2.17,6.33.13,12.21-3.17,18.63-2.41.86.1,1.86-.52,1.9-1.55.04-1.23-1.12-1.2-1.97-1.36-3.08-.59-6.07-.16-9.1.58-5.2,1.27-10.36,2.92-15.82,2.62,3.19-2.93,7.63-2.96,11.3-5.17-7.7-2.49-15.27-.46-22.9,1.16,0-1.8,1.18-1.53,1.89-1.76,1.6-.52,2.42-1.47,2.28-3.2-.13-1.74-1.5-1.79-2.72-2.08-2.8-.68-5.37-2.28-8.39-2.06l.04.03c.35-1.46.69-2.92,1.04-4.38,8.91,4.46,18.43,4.57,28.08,3.77-4.51-.83-9.02-1.67-13.54-2.49-1.8-.33-3.59-.67-4.69-2.38v.02c4.51-.36,8.78,1.49,13.34,1.46-3.1-2.44-7.69-1.77-10.34-4.94.61-1.73,1.82-1.17,2.76-.99,1.23.25,2.4.81,3.62,1.12q5,1.29,6.21-3.85c-1.9-.86-3.92-1.6-6.07-1.33-6.6.82-9.14,1.52-12.51-1.61-5.47-5.08-12.79-5.75-18.64-9.58-.45-.3-.85-.67-1.27-1.01,0,0,0,0,0,0,2.95-.03,5.61,1.07,8.34,2,6.95,2.35,13.96,4.53,21.48,6.05-.91-1.17-1.76-2.4-2.77-3.47-.46-.48-1.63-1.05-1.84-.86-4.02,3.55-4.2-.78-5.56-2.65l-.03.04c4.52.5,8.81,1.99,13.2,3.02,1.06.25,2.43.42,2.8,1.45,1.16,3.24,3.61,2.22,5.85,2.03,4.35,3.37,14.43,5.77,18.86,4.17-3.82-.67-6.48-4.58-10.93-3.54-.95.22-1.84-.26-2.33-1.05-2.22-3.59-3.88-1.11-5.64.47-4.08-4.04-9.19-5.85-14.68-7.03-3.14-.67-6.26-1.68-9.2-2.96-2.52-1.09-5.03-1.84-7.75-2.02h.02c-3.45.42-5.99-1.28-9.01-2.74-3.84-1.85-8.13-4-12.73-3.87-1.87.05-2.81-.48-3.04-2.18-.24-1.75.76-2.76,2.41-3.01,5.36-.82,10.72-2.11,16.11-2.27,17.82-.5,34.27,4.53,49.66,13.3,1.73.99,3.46,1.96,5.15,3,1.84,1.14,3.48,2.33,4.48,4.51,1.83,4,5.97,6.26,8.24,10.01.4.66,1.2.85,1.93.66,3.64-.98,5.3,1.36,6.8,3.99.82,1.43,1.89,2.67,3.2,3.65.83.62,1.76,1.66,2.85.88,1.05-.75.28-2.01.28-3.04.8-.03,1.6-.07,2.41-.1,1.02.75,2.04,1.51,3.06,2.26,1.62,1.67,2.93,3.76,6.09,4.83-1.44-3.37-3.66-4.24-6.13-4.79.73-2.39.04-4.13-2.17-5.41-1.48-.86-3.4-1.27-4.08-3.31,1.24-1.52,2.6-.15,3.87-.15,1.75,0,3.54.86,5.2-.36.85-.62,1.63-1.71,2.8-1.11,1.8.93-.48,1.73-.23,2.53.85,2.7,3.56,3.26,5.59,4.59-1.14,2.86.09,5.28,2.97,5.8.05,0,.15-.29.23-.44,1.53.57,2.08,1.8,2.22,3.3-1.58,1.01-1.96,2.33-1.06,4,.9,1.68,1.83,3.35,3.24,4.68.24,2.17.8,4.18,2.58,5.6-.29-2.14-1.16-4-2.63-5.56-.19-3.05-2.48-5.58-2.19-8.76,1.67.9,2.29,2.75,3.56,4.15,1.36-3.9,1.09-4.4-9.78-17.83,2.28.08,3.39,1.59,4.61,2.78,7.01,6.82,10.67,15.43,12.98,24.72,1.27,5.1,1.17,10.44,2.66,15.5.1.34.22.81.07,1.07-2.01,3.59-.31,7.12-.08,10.72.24,3.75-.62,7.57-1.01,11.36-.13,1.27-.51,2.66.22,3.74,2.65,3.94,1.86,8.38,1.83,12.64-.01,1.67-.1,2.93,1.02,4.42,1.4,1.85,1.07,2.12-2.58,2.81,1.45,2.31,5.19,2.3,5.36,5.7.07,1.4.8,2.61-.37,4.03-3.44,4.17-3.63,8.86-1.79,13.78.98,2.62.58,5.75,3.55,8.97-1.23-6.32-2.23-11.49-3.23-16.65.3-.07.61-.14.91-.21,1.03,3.19,2.07,6.38,3.1,9.58.95-4.52-1.91-8.62-1.3-13.4,2.07,1.14,2.21,2.97,2.62,4.38,1.44,4.89,2.94,9.73,5.47,14.17.8,1.4.6,2.76.31,4.21-.45,2.21-.78,4.3,2.28,5.14,1.36.37,1.3,2.07,1.52,3.28,1.33,7.13,2.67,14.27,3.85,21.42.26,1.56.14,3.32-.3,4.85-2.8,9.65-1.14,19.41-.83,29.14.05,1.42.61,2.86-.71,4.78-.68-2.75-3.82-3.87-2.78-7.07.08-.26-.14-.83-.38-.95-4.62-2.33-3.42-6.82-3.76-10.6-.2-2.23-.96-2.91-3-2.53l.04.04c1.08-2.41,1.51-4.77.07-7.28-.91-1.58-1.36-3.5-.89-5.28,1-3.85-.61-6.96-1.95-10.4-1.7-4.35-2.46-9.07-3.65-13.63-.49-1.9-1.03-3.8-1.8-6.65-.98,5.05.17,9.37-1.19,14.05-2.16-1.99-1.51-3.83-1.39-5.48.45-6.53.56-13.06-.26-19.57-.42-3.38-.75-6.8-3.28-10.65-.85,7.18-1.66,13.33-1.48,19.62.12,4.34-.69,8.67-.42,13.05.43,7.08,2.38,13.88,3.64,20.81,5.76,4.64,3.45,11.96,5.85,17.75,1.19,2.88.37,6.12.39,9.19,0,1.27-.7,2.43-2.48,3.15-.9-3.89,1.12-7.94-.81-11.59-1.85-3.5-1.9-7.71-4.43-11.84-1.88,3.27-.94,6,.02,8.19,1.95,4.44.65,8.65.18,13.02-.6,5.58-1.35,11.16,1.1,16.69,1.46,3.28,2.02,6.98,1.98,10.65-.03,2.94-.22,3.1-4.37,5.65,2.63-7.59-.77-13.85-2.16-20.46-3.7-17.59-8.17-35.02-10.72-52.84-.1-.71-.34-1.4-.89-2.11-.52,3.9-.44,7.79.03,11.71,1.25,10.5,4.31,20.61,6.63,30.87.8,3.54,1.4,7.11,2.1,10.67.18.91.37,1.9-.84,2.17-1.03.23-1.77-.47-2.12-1.33-.47-1.17-.73-2.42-1.11-3.63-.74-2.38-.85-4.97-2.63-7.1.51,4.23.78,8.5,1.58,12.66.82,4.25,2.15,8.39,3.25,12.59,2.26-.29.63-2.93,2.87-3.12,1.09,3.75-.42,7.63.38,11.5.81,3.93,1.33,7.82,3.28,11.41,1.79,3.32,4.35,6.33,4.69,10.31-4.21-3.02-5.72-7.77-8.17-11.86-1.66-2.79-2.81-5.9-4.01-8.93-.8-2.01-1.74-4.13-1.83-6.24-.57-13.2-4.82-25.57-8.29-38.12-.92-3.31-2.85-6.2-4.75-9.12-3.77-5.77-7.02-11.87-10.53-17.8-6.01-10.18-12.55-19.96-21.28-28.09-2.39-2.23-4.81-4.45-6.32-7.43-.9-1.78-1.67-3.59-2.08-5.58-.57-2.76.16-5.42.16-8.12,0-2.63-1.78-5.07-1.16-8.49,3.3,2.74,3.44,6.16,3.84,9.36.31,2.52.53,4.98,1.42,7.43,1.71,4.72,4.24,8.76,7.96,12.16,2.8,2.56,5.58,5.21,7.47,8.61.49.87,1.07,1.99,2.6,1.5-1.73-5.48-3.22-10.95-2.15-16.82.42-2.29.18-4.7.26-7.06.05-1.4-.41-2.98,1.25-3.87,1.09-.59.92-1.28.28-2.19-1.65-2.34-1.74-4.02,1.7-4.84,1.39-.33,1.96-2.45,3.82-3.21-4.39,13.86-3.98,27.28,2.14,40.42-1.09-9.14-2.21-18.28-1.36-27.58.6,3.8,1.19,7.59,1.79,11.39,1.4-4.19-.52-8.42,1.12-12.56,1.8,10.07,2.17,20.34,5.28,30.22-.34-3.63-.82-7.25-.99-10.89-.17-3.58-.33-7.08,3.37-9.6,1.92-1.3,1.1-3.88.76-6.14-1.78.94-.01,3.13-1.97,3.78-1.57-1.45-.94-3.36-1.01-5.07-.15-3.81.02-7.64-.3-11.43-.28-3.35-.19-6.86-3.28-9.45-1.51-1.26-1.45-3.48-1.6-5.55-.59-8.11-.52-16.36-4.09-23.98-.55-1.18-.47-2.47-.32-3.76,1.19-10.23,2.35-20.47,3.56-30.7.06-.51.46-.97.7-1.46l-.05-.03c.73,1.43,1.31,2.96,2.85,3.78,1.84.98,2.2,2.64,2.09,4.46-.8.85-1.26.24-1.8-.24-.37-.33-.82-.57-1.25-.85-.23.38-.56.69-.51.91.16.69.62,1.33.67,2.02.23,3.14,4.32,3.43,4.69,6.12.36,2.59-.67,5.35.92,7.83l-.04-.03c.57,1.11,1.31,1.92,2.36.59.87-1.1.28-2.43.17-3.67-.69-8.19-3.96-15.7-6.28-23.45-.89-2.98-3.02-5.32-5.47-7.25-.73-.57-1.68-.83-2.45-.02-.58.62-.31,1.35.12,1.96,1.85,2.64.67,3.51-2.04,3.6-2.65.09-3.62,1.93-4.31,4.15-1.1,3.52-.29,6.96,1.04,10.06,2.01,4.71,1.34,9.94,3.46,14.6.97,2.13-.68,4.15-1.73,6.04-.57.66-2.52,3.66-.77,4.11,1.57.4,1.61-2.23,1.7-3.13Zm-4.36-6.52c1.29.28,2.49,1.15,3.95.59q-1.57-2.01-3.91-.56c-.58.99-1.38,1.97-.2,3.2,1.19-1.09.13-2.19.15-3.23Zm-41.4-68.67c1.03.85,1.97,1.92,3.71,1.55-.96-1.53-2.42-1.35-3.72-1.54-1.75-1.44-3.54-2.75-7.07-2.74,2.72,2.01,4.84,2.53,7.08,2.73Zm1.11,5.43c.2.52.96,2.08,1.62,1.1.63-.94-1.16-.98-1.67-1.04-.43-.33-.87-.94-1.29-.93-2.75.07-5.26-.11-7.27-2.52-.63-.76-2.37-.75-3.61-.8-1.25-.06-2.34.12-3.44-.97-1.64-1.63-5.05-.22-6.07-2.69-1.21-2.95-3.95-1.95-5.84-2.63-5.04-1.8-10.42-2.24-17.02-1.89,3.36,2.63,6.25,3.46,9.11,4.34,9.18,2.81,18.38,5.56,27.55,8.41,2.72.84,5.34.95,7.92-.36Zm65.17,174.63c-.66-4.09-1.35-8.16-1.96-12.26-.64-4.3-.71-8.77-1.96-12.89-1.13-3.75,1.12-8.28-2.6-11.74-1.71,8.44,1.52,28.7,6.52,36.89Zm40.28-7.88c-.38-5.76.48-11.46-2.84-17.07-2.65-4.48-3.54-9.99-5.24-15.14-1.04.75-.61,1.47-.54,2.12,1.11,10.52,6.94,19.71,8.62,30.09Zm-34.55-99.16c-1.81,1.9-1.48,3.34-1.23,4.65,1.35,7.14,1.19,14.38,1.37,21.59.01.51.11,1.08,1.54,1.01,1.08-8.87-.34-17.62-1.69-27.25Zm-38.98-36.69c1.02.86,2.22,1.17,3.43,1.25,4.31.31,5.49-1.46,3.67-5.36-1.03-2.2-2.32-2.33-3.94-.3-1.09,1.36-2.04,2.83-3.16,4.41Zm31.77,53.28c-1.9,4.53-1.59,9.2-.9,13.89,2.03-4.53,1.49-9.21.9-13.89Zm-43.3-36.05c-2.47-1.91-5.02-2.44-7.76-.69-.75.48-1.79,1.02-1.52,2,.4,1.48,1.65.97,2.68.68,2.2-.63,4.73-.19,6.61-1.98Zm39.21,34.26c2.43-4.62,2.58-8.86.59-14.52-1.11,4.77-1.19,9.54-.59,14.52Zm-32.62-52.39c-4.61-.76-9.05.17-14.35,1.33,5.52,1.3,9.99.73,14.35-1.33Zm44.28,94.78c.41.03.81.07,1.22.1.38-5.04.76-10.09,1.14-15.13-.39-.03-.79-.06-1.18-.09-.17,5.06-1.68,10.02-1.18,15.13Zm-3.38-21.11v14.89c0-4.96,2.78-9.91,0-14.89Zm.63-2.99c1.41-6.24,1.4-6.38-.51-10.14-.33,3.5-.99,6.53.51,10.14Zm6.95,35.27c.34-5,1.53-9.84,0-14.58v14.58Zm-19.5,34.5c-.79-2.71-1.66-5.38-3.7-7.47.18,3.01,1.17,5.62,3.7,7.47Zm-25.75-129.99c-1.85,1.52-3.7,3.03-5.55,4.55,2.83-.25,5.14-1.14,5.55-4.55Zm37.01,145.93c-.63,1.98-.2,3.8,1.1,6.27.33-2.73.31-4.57-1.1-6.27Zm-12.91-120.94c-1.33,2.53-1.06,4.97,0,7.35v-7.35Zm1.68,7.23c1.41-3,.94-5.05.06-8.27-.55,3.29-.6,5.36-.06,8.27Zm-28.09-36.85c-.81.58-2.38-.86-2.72,1.01,1.02.07,2.09.45,2.72-1.01Zm51.27,104.48c.04-1.34.73-2.67-.15-4.09-.61,1.53-.38,2.85.15,4.09Zm9.74-26.23c.46-2.19.64-3.48-.71-4.86-.37,1.78.04,2.94.71,4.86Zm-5.62,64.71c-.34-1.83-.15-3.13-1.4-4.81.12,1.82-.52,3.18,1.4,4.81Zm-102.4-191.39c-1.99-.02-1.07,1.27.17,1.7.56.19,1.37.17,1.14-.65-.15-.51-.93-.77-1.31-1.05Zm94.95,126.14c.58-1.7.54-3.02-.09-5-.61,2.02-.82,3.35.09,5Zm-43.91-93.15c1.18.08,1.54.18,1.88.12.63-.12,1.93-.27,1.5-.84-.67-.88-1.86-.15-3.38.72Zm-29.21,12.09c.33-.14.92-.28.91-.39-.08-1.03-.91-.85-1.57-.82-.32.01-.9.27-.89.38.06,1.08.97.68,1.55.82Zm78.33,4.48c-.17.53-.72,2.49.14,2.7,1.57.4.39-2.31-.14-2.7Zm-107.4-50.23c-.22-.22-.43-.61-.65-.62-.75-.03-2.2-.48-1.93.65.23.95,1.68.62,2.57-.03Zm82.28,73.9c.97-.51.77-2.63-.48-2.25-1.3.39-.8,2.3.48,2.25Zm23.11,17.05c.13-.32.42-.67.36-.93-.14-.63.53-2.17-.85-1.59-.83.35-.55,1.81.49,2.52Zm-4.32-2.72c.22-2.08.62-3.11-.15-4.1-.63,1.04-.44,2.06.15,4.1Zm-36.68,5.42c.3-.17.74-.27.82-.5.22-.66,1.44-1.64.14-1.92-.7-.15-1.36,1.28-.96,2.42Zm34.51-19.94c.07.32.4,1.35.95,1.04.24-.13.33-1.01.32-1.23-.09-1.28-1.31-.95-1.27.18Zm-46.51-10.7c.38.29.69.72,1.19.35.29-.21.39-.62.23-.94-.45-.9-1.48-.2-1.42.59Zm53.55,80.3c-.06-.33-.03-1.35-.41-1.51-.39-.17-.39.31-.41.57-.06.6.59,2.41.82.94Zm-48.95-41.33c-.21-.26-.29-.57-.64-.6-.28-.02-.62.29-.7.53-.35,1.1,1.02.67,1.34.07Zm25.4-.72c-.15-.24-.29-.48-.44-.73-.24.29-.67.58-.38.95.29.38.7.14.82-.22Zm7.96-9.54c.03-.3.31-2.75-.43-1.93-.36.4-.51,2.23.43,1.93Zm-76.6-89.17c-.38.19-.65.32-.92.45.38.26,1.52,1.34,2.04.74.57-.66-.77-1.01-1.12-1.19Zm67.6,89.69c-.18-.83-.21-.85-1.02-1.02.15.88.16.88,1.02,1.02Zm-3.17-.22c.07-.26.58-1.53-.07-1.51-.8.02-.06,1.27.07,1.51Zm-17.58,6.68c.32-.21,1.67-1.22.48-1.28-.64-.03-1.46,1.12-.48,1.28Z"/>
        <path class="cls-1" d="m995.63,211.54c-7.22,1.58-11.59,7.05-16.31,12.02-1.08,1.14-1.07,2.67-.38,4.1.55,1.15,1.06,2.33,1.78,3.36,1.92,2.76,1.47,5.08-1.08,7.11-2.56,2.04-4.13,4.22-1.1,7.13.24.23.5.7.43.97-1.73,6.34,3.5,12.51.09,19.11-1.67,3.23,1.8,7.35,6.35,8.6,2.97.82,6.02,1.34,9.03,1.98,12.38,2.61,19.3,10.97,22.96,22.37,2.38,7.4,4.5,14.91,5.41,22.71.38,3.27.67,7.05,4.98,8.12.26.92-.5,1.26-1.02,1.66-9.01,7-14.65,16.19-18.44,26.88-2.98,8.4-5.55,16.9-8.24,25.37-2.48,7.8-6.8,14.83-10.15,22.27-4.48,9.97-6.93,20.28-6,31.17.47,5.55,3.6,10.38,6.83,14.65,9.61,12.72,15.25,27.1,19.4,42.28,3.55,12.95,7.34,25.83,9.71,39.08.97,5.43.07,10.86.76,16.25.16,1.26-.2,2.62-1.06,3.59-2.54,2.84-2.16,6-1.21,9.24.87,2.96,1.45,6.07,2.8,8.8,1.35,2.73,1.29,5.18.3,7.83-3.74,10.07-5.68,20.56-7.52,31.1-.41,2.36.61,5.61-2.77,6.9-1.64-2.47-.05-4.83.37-7.18,1.43-8.04,2.2-16.33,4.8-23.99,2.43-7.16,2.14-13.51-.53-20.26-1.34-3.37-1.81-7.03-1.72-10.71.03-1.27-.21-2.7.28-3.78,4.09-8.85,2.46-18.08.11-26.56-5.13-18.51-9.08-37.42-16.64-55.21-3.09-7.27-7.62-13.6-12.18-19.94-1.39-1.93-2.66-1.64-3.7.27-2.9,5.33-7.01,9.69-10.98,14.18-1.34,1.52-2.79,2.86-4.51,3.89-.77.47-1.69,1.03-2.41.06-.64-.87-.16-1.8.53-2.41,3.68-3.3,6.3-7.5,9.55-11.16.72-.81,1.38-1.69,2.12-2.48,3.99-4.26,5.74-8.68,5.06-15.08-1.09-10.17,1.41-20.25,5.52-29.69,6.51-14.96,12.38-30.17,17.83-46.27-3.08,2.26-5.02,5.01-6.65,7.71-4.76,7.89-11.52,13.96-17.82,20.45-3.88,4-8.18,7.47-10.7,12.8-2.09,4.41-6.46,7.29-10.13,10.52-12.38,10.91-24.56,22.1-35.54,34.38-5.68,6.35-11.48,12.58-17.23,18.85-4.05,4.41-9.16,7.72-13.07,12.29-.94,1.1-2.33,1.98-2.86,3.24-2.57,6.08-7.35,10.31-12.03,14.59-4.17,3.82-7.19,8.59-11.23,12.55-8.68,8.49-18.75,14.82-29.44,20.32-1.93.99-4.11,1.59-5.55,3.35-.83,1.02-1.73.86-2.89.76-4.05-.37-7.85.43-11.57,2.25-3.95,1.93-8.45,1.94-12.74,2.63-3.4.55-6.86.75-10.26,1.3-3.05.5-6.05,1.3-8.18,4.33,1.46.68,2.45-.22,3.43-.73,3.65-1.92,7.62-2.27,11.63-2.38,1.69-.05,3.35.35,4.25,1.95.97,1.74.08,3.62-1.16,4.38-4.22,2.56-4.62,6.73-5.22,10.88-.34,2.33-1.49,4.08-3.52,5.21-6.01,3.34-11.99,6.73-18.08,9.93-4.66,2.45-8.94,5.28-13.19,9.91,4.44.01,7.6-1.13,10.48-2.71,8.12-4.46,16.75-7.77,25.2-11.49,1.11-.49,2.53-1.69,3.41-.33.99,1.52-.6,2.6-1.64,3.56-6.15,5.7-12.7,10.87-20.17,14.74-2.63,1.37-4.68,3.41-7.01,5.12-.75.55-1.33,1.36-.97,2.33.46,1.23,1.67,1.54,2.72,1.24,2.78-.79,5.52-1.71,7.99-3.3,7.63-4.9,15.22-9.86,22.97-14.57,4.37-2.65,9.14-4.45,14.38-4.54,1.27-.02,2.76-.05,3.21,1.44.35,1.15-.64,2-1.42,2.76-2.34,2.27-4.82,4.42-7.04,6.81-3.08,3.31-6.15,6.7-5.53,12.06,2.15-.17,3.43-1.49,4.63-2.74,5.18-5.39,11.18-9.78,17.02-14.38,7.42-5.85,14.07-12.29,19.57-20.22,6.59-9.5,14.45-18.12,24.34-24.58,2.57-1.68,5.07-3.65,7.08-5.95,8.98-10.22,20.21-17.67,31.27-25.21,11.72-7.99,22.91-16.57,33.55-25.9,1.46-1.28,3.11-2.29,5.27-2.72-.06,2.23-1.52,3.15-2.72,4.09-8.4,6.64-16.11,14.12-24.85,20.34-2.66,1.89-5.27,3.85-8.04,5.56-12.92,7.98-23.83,18.32-34.44,29.03-2.31,2.33-4.72,4.52-7.41,6.4-10.68,7.48-19.39,16.8-26.29,27.88-2.33,3.74-5.8,6.49-9.16,9.27-8.53,7.04-17.68,13.32-25.75,20.92-1.89,1.78-3.96,2.72-6.38,1.25-2.31-1.41-2.95-3.92-2.42-6.22.83-3.61,1.13-7.67,5.03-9.82.75-.42,1.32-1.24,1.47-2.78-4.75,1.31-8.31,4.3-12.13,6.74-5.5,3.5-10.4,7.96-16.6,10.32-1.7.65-3.38,1.36-5.13,1.83-4.46,1.22-7.75-.08-10.31-3.85-1.03-1.51-.74-2.81.55-3.83,2.13-1.69,4.38-3.23,6.57-4.85,1.12-.83,2.71-1.14,3.27-3.26-2.9.34-5.4,1.08-7.69,2.52-1.94,1.22-4.07,1.55-6.28,1.31-3.78-.4-5.3-3.16-3.6-6.61.89-1.8,2.11-3.39,3.91-4.44,4.36-2.56,8.16-6.11,13.23-7.43.47-.12.83-.62,2.13-1.63-3.61.3-5.96,1.39-8.22,2.54-2.93,1.48-6,1.46-9.06,1.13-3.22-.34-4.59-3.16-2.96-5.98,1.09-1.89,2.65-3.4,4.68-4.44,3.25-1.66,6.58-3.03,10.11-4,5.26-1.45,10.41-3.12,14.78-6.65,2.69-2.18,6.34-2.34,9.36-4.05-3.55-.3-7.02,0-10.33,1.21-1.96.72-3.9.82-5.89.63-2.44-.23-3.18-1.48-2.07-3.66,1.08-2.11,2.63-3.83,4.77-5.07,4.19-2.42,8.75-3.77,13.45-4.11,8.79-.63,16.86-3.93,25.24-6.1,6.57-1.69,12.78-3.96,18.54-7.52,2.48-1.53,4.68-3.32,6.76-5.42,3.17-3.2,6.8-5.95,10.25-8.87,8.21-6.95,15.05-15.2,22.08-23.25,6.23-7.14,13.11-13.64,20.18-19.84,6.6-5.78,12.05-12.55,18.11-18.77,3.41-3.5,6.18-7.64,9.64-11.09,3.3-3.29,7.04-6.16,10.74-9.02,1.46-1.13,2.81-2.34,3.85-3.81,5.28-7.44,11.83-13.58,18.67-19.58,6.25-5.48,11.79-11.76,17.26-18.05,3.81-4.38,7.91-8.51,11.62-12.96,7.2-8.65,14.24-17.45,19.24-27.63,1.78-3.63,4.13-6.86,7.09-9.57,1.66-1.52,2.2-2.96,1.62-5.24-2.74-10.9-5.61-21.81-10.28-32.02-3.25-7.11-7.73-13.68-16.76-14.78-2.87-.35-5.7-1.14-8.49-1.93-7.96-2.26-11.27-7.51-9.72-15.6.63-3.32.82-6.46-.82-9.54-.52-.97-.94-2.14-.52-3.15,1.04-2.55.5-4.82-.43-7.29-.87-2.3.49-4.25,2.26-5.71,2.04-1.68,1.88-2.96.04-4.86-4.86-5.03-3.95-11.61,2.35-14.7,5.27-2.58,9.33-6.87,14.68-9.33,2.59-1.19,3.74-4.17,4.92-6.94,3.12-7.31,5.75-14.93,11.33-20.92.25-.26.43-.59.68-.85.98-1.09,2.04-2.44,3.58-1.07,1.16,1.04.58,2.43-.26,3.44-5.89,7.1-8.43,16.05-13.19,23.76-1.18,1.91-1.39,3.29.94,4.33.66.29,1.29.7,1.85,1.15,1.46,1.18,3.1,2.77,1.62,4.52-1.64,1.93-3.2.26-4.44-1.15h0c.61-.19,1.96-.5,1.46-.9-1.62-1.3-3.25-3.85-5.81-1.29h0Zm-231.91,353.33c2.91.4,5.53-.13,8.11-.91,6.26-1.87,12.39-4.18,18.95-4.94,1.2-.14,2.36-.86,3.49-1.42,1.76-.87,2.22-2.08,1.25-3.99-1.02-2.02-2.2-2-3.93-1.04-2.69,1.48-5.11,3.37-8.17,4.27-3.47,1.03-6.88,2.28-10.38,3.28-3.34.95-6.83,1.85-9.32,4.75Zm24.34,11.27s-.49.59-.33.9c.25.51,1.05-.14,1.29-.35,1.19-1.03-.23-.84-.95-.55Z"/>
        <path class="cls-1" d="m1154.79,579.24c-3.63-2.21-6.69-5.41-11.13-6.38-.53,2.06,2.28,2.17,2.23,3.89-.21.37-.56.52-.92.26-2.53-1.82-6.33-2.39-6.51-6.55-.32-.41-.65-.81-.97-1.22-.98-1.2-1.92-2.44-2.95-3.6-.93-1.04-1.79-.83-2.47.34-8.78-7.68-16.6-16.19-23.31-26.9,4.22.75,4.66,4.15,6.55,5.97,1.9,1.83,3.63,3.83,5.77,5.52-.6-2.88-2.51-4.96-4.11-7.23-2.03-2.88-5.19-5.1-5.28-9.16-.03-1.29-1.5-1.37-2.38-1.94-1.03-.66-.74-1.5-.13-2.3.39-.03.78-.05,1.17-.08.87.14,2.52,1.71,2.41.43-.22-2.66,2.13-6.03-1.52-8.04l.03.04c-.14-4.27-1.88-8.1-3.29-12.02-1.17-3.24-2.28-6.51-3.38-9.78-.71-2.11.3-3.07,2.3-3.31,1.43,1.46,2.47,3.13,2.65,5.2.6,6.94,3.38,13.26,5.52,19.76.34,1.03.23,2.57,2.74,2.95-2.52-5.66-2.88-11.38-4.69-16.85-1.73-5.24-.17-11.34-3.87-16.38-.46,2.04-.9,3.95-2.39,5.38-.6-1.3-1.21-2.6-1.79-3.91-.62-1.39-1.68-2.47.06-4.23,1.68-1.7.31-4.08-.44-6.09-2.98-7.98-7.34-15.27-11.46-22.68-3.41-6.14-7.17-12.05-11.4-17.66l-.05.05c3.07-3.46,3.84,1.48,6.17,1.94.59-3.9-1.26-6.89-2.41-10.03-.53-1.44-2.12-3.21-.07-4.22,2.07-1.03,2.59,1.2,3.26,2.63,1.91,4.09,5.15,7.49,6.25,12-.62.72-1.03,1.64-.54,2.44,1.92,3.15,2.9,6.91,5.91,9.37,1.35,4.95,4.02,9.27,6.54,13.66,1.1,1.91,2.17,3.76,2.18,6.04-1.24-1.27-2.97-3.72-4.63-1.37-1.24,1.75,1.12,3.73,1.86,5.2,1.03,2.02,1.62,4.23,2.43,6.33.59,1.53,1.32,2.57,3.15,2.29-.38-2.21-.6-4.48-1.2-6.65-.55-1.96-1.59-3.8-1.65-5.87,3.78,3.01,3.25,8.69,6.92,11.73,1.75-.8.89-2.43,1.69-3.45,2.54-3.25,1.75-6.17-.78-9.19-2.59-3.09-4.35-6.7-7.52-9.54-2.97-2.67-4.63-6.8-6.87-10.28-.72-1.08-1.44-2.17-2.16-3.25-.74-1.46-1.48-2.91-2.22-4.37,3.21-2.67-.06-5.47-1.05-6.52-2.7-2.85-3.95-6.48-5.81-9.62-4.14-7-10.44-11.99-15.21-18.34-1.29-1.72-2.79-3.24-3.73-5.36,1.7-1.15,2.54.17,3.39.84,4.19,3.27,7.09,7.76,10.61,11.66,3.51,3.9,6.64,8.18,9.68,12.47,4,5.65,9.59,9.91,13.49,15.64,1.23,1.8,2.57,3.47,3.46,5.5,2.87,6.51,6.66,12.39,11.15,17.97,3.48,4.33,6.06,9.49,7.9,14.82,1.68,4.88,4.26,9.23,7.18,13.39,3.53,5.02,7.27,9.89,10.9,14.84,1.41,1.92,3.04,3.63,4.94,5.05,8.46,6.34,15.29,14.43,23,21.58,5.4,5.02,9.36,11.55,14.27,17.14,6.82,7.77,12.99,16.24,20.96,22.87,9.27,7.71,16.44,17.36,25.07,25.66,5.84,5.63,12.02,10.97,17.45,17.04,1.11,1.24,2.49,2.18,4.03,2.73,7.14,2.52,14.23,5.01,21.68,6.72,8.82,2.03,17.78,3.47,26.48,5.98,4.52,1.3,8.83,1.23,14.34-.76-8.02-4.67-15.5-8.2-23.33-11.22.41-.57.58-1.03.77-1.05,13.36-.8,26.75-1.23,39.94-3.89,1.92-.39,3.99-.08,5.89-.52,1.36-.31,2.91-1.29,2.58-3.02-.3-1.53-1.94-1.47-3.18-1.43-5.25.15-10.5.89-15.75,0-5.14-.88-10.37-.94-15.62-1.29.17-2.36,1.75-2.38,2.82-2.44,3.98-.24,7.84-1.38,11.89-1.25,4.34.14,7.7-3.02,11.92-3.94-1.5-1.44-3.03-.51-4.45-.46-1.44.04-2.86.38-4.32-.04-2.44-.71-2.53-1.38-.11-4.2-5.24-.98-10.18.14-15.09.37-4.01.19-7.94-.17-11.92-.4-6.65-.39-13.36-.36-19.99.75-.71.12-1.59.22-2.04.67-3.55,3.5-6.47,1.29-9.65-.74-6.38-4.06-11.35-9.56-15.98-15.38-9.26-11.61-18-23.66-27.64-34.95-9.55-11.19-17.99-23.14-26.72-34.92-4.53-6.11-9.21-12.14-13.86-18.17-1.56-2.02-3.17-4.01-4.23-6.32-1.22-2.67-2.82-5.07-4.48-7.45-5.9-8.48-12.21-16.72-15.95-26.5-4.6-4.05-5.09-9.81-6.33-15.25-.12-.51-.09-1.06-.08-1.59,0-.12.22-.24.83-.86,2.55,6.83,6.43,12.71,9.41,19.06,3.64,7.77,7.96,15.06,13.33,21.78,2.6,3.25,4.85,6.8,7.06,10.33,6.87,10.95,15.22,20.8,22.82,31.21,4.27,5.85,9.91,10.66,13.58,16.94,2.69,4.59,6.46,8.21,9.72,12.28,9.96,12.46,18.48,26.06,29.88,37.36,3.48,3.45,6.9,6.95,10.73,10.02,2.08,1.67,4.07,1.96,6.41.31,1.76-1.24,3.79-2.16,5.79-3.01,4.49-1.89,9.47-2.96,13.78-.81,6.72,3.35,13.45,2.14,20.28,1.69,2.17-.14,4.34-.44,6.5-.69,1.27-.15,2.71-.5,3.75.21,3.65,2.49,7.9,3.28,11.94,4.71,2.84,1,3.21,3.22,1.51,5.69-.95,1.37-2.31,2.25-3.72,3.13-1.33.82-3.11.93-4.29,2.61,3.46.82,6.59.07,9.74-.55,1.78-.35,3.66-.84,4.82,1.27,1.08,1.97,0,3.45-1.1,4.96-1.69,2.33-4.13,3.39-6.74,4.35-6.44,2.37-13.15,2.41-19.86,2.57-1.74.04-3.48,0-6,0,1.85,2.12,3.81,2.17,5.27,3.11,2.87,1.85,4.61,5.07,3.83,7.78-.89,3.13-3.18,4.75-6.35,5.18-3.65.5-7.19.44-10.65-1.2-8.63-4.11-18.26-4.49-27.31-7.09-1.73-.5-3.62-.28-5.4.24-3.37.98-6.42.16-9.42-1.45-7.7-4.13-15.02-8.77-21.66-14.51-8.66-7.48-16.76-15.52-24.88-23.57-15.11-15-28.24-31.61-41.23-48.38-4.55-5.87-9.86-11.14-15.53-15.99-10.09-8.64-19.38-18.06-27.13-28.87-3.71-5.18-5.15-11.56-8.23-17.12-1.05-1.9-1.88-3.93-2.87-5.87-.33-.65-.92-1.19-1.73-1.1-.88.11-1.11.83-1.15,1.6-.09,1.99-.26,3.97-.24,5.96.03,2.54.5,5.1.31,7.61-.54,7.25.77,14.08,4.02,20.57.55,1.11,1.12,2.31.57,3.65-1.65,1.3-1.79-1.37-3.04-1.15-1.04,1.24-1.03,2.58-.52,4.07,1.71,4.97,2.88,10.13,5.65,14.71,1,1.66,1.95,3.45.94,5.98-3.2-2.72-2.95-7.1-6.38-10.6,1.31,5.76,2.88,10.05,6.58,13.3-.13,2.76,1.47,4.67,3.17,6.54.97,2.23,2.36,4.14,4.37,5.56.72.7,1.45,1.41,2.17,2.11,2.19,5.43,6.9,8.74,10.76,12.77,1.56,1.75,3.15,3.49,3.35,5.99Zm-27.18-26.44c.36,1.3.69,2.63,2.47,3.09-.32-1.75-1.5-2.33-2.52-3.05-.43-1.53-.85-3.07-3.19-3.67.69,1.93,1.96,2.78,3.23,3.64Zm-6.79-77.97c-1.46-5.36-11.27-21.74-14.83-24.44,4.92,8.56,8.18,17.17,14.83,24.44Zm3.82,79.42c-1.14-.49-.56,1.67.21,1.77,1.17.15.19-1.44-.21-1.77Zm-25.52-92.6c-.31-.16-.74-.6-1.12-.36-.35.21-.16.53.03.77.43.51,1.43.4,1.09-.4Z"/>
        <path class="cls-1" d="m1175.54,769.78c-3.31,4.18-7.64,4.46-12.32,3.11-2.17-.63-3.6-.26-3.87,2.23-1.14,10.48-2.29,20.96-.23,31.45,1.12,5.67,1.59,5.97,7.31,4.26,13.45-4.01,27.16-6.68,41.16-7.56,9.95-.63,19.93-.79,29.89-1.31,12.34-.64,24.52-2.39,36.72-4.46,7.34-1.25,14.58-2.44,21.64-4.8,4.52-1.51,8.7-3.47,12.43-6.53,4.62-3.78,9.47-7.26,14.16-10.82.88.35.74.97.35,1.28-6.02,4.93-11.29,10.78-18.1,14.74-8.63,5.01-18.18,7.06-27.83,8.98-10.7,2.12-21.42,3.93-32.32,4.64-1.29.08-2.72.2-3.55,1.16-2.31,2.68-5.46,2.76-8.5,2.82-7.81.15-15.62.12-23.44.1-9.59-.03-19.18-.03-28.68,1.33-5.74.82-11.33,2.42-16.91,4.04-4.48,1.31-4.95,1.01-5.9-3.54-2.38-11.32-2.89-22.66-.03-34.01.62-2.45,1.1-5,1.17-7.52.1-3.92-1.77-5.25-5.52-4.2-5.96,1.67-10.32,4.89-12.05,11.3-3.31,12.24-11.83,15.14-22.61,15.79-2.66.16-4.46-1.01-4.66-3.47-.31-3.74-2.41-3.67-5.18-3.25-4.66.71-9.36,1.18-14.03,1.86-3.3.48-6.48.28-9.68-.71-3.47-1.08-7.02-1.8-10.72-1.61-5.34.28-10.1,1.86-13.32,6.31-3.4,4.71-8.3,7.05-13.49,8.63-3.1.94-4.22,2.68-4.18,5.42.13,8.17.21,16.37,3.08,24.18,4.8,13.07,7.85,26.43,7.18,40.46-.19,4,.25,7.97,1.09,11.9.32,1.49,1.17,3.14-.15,4.74-1.97-.23-2-1.88-2.11-3.21-.52-5.97-1.16-11.94-1.3-17.92-.33-14.36-3.47-28.03-9.46-41.07-1.61-3.51-2.2-7.29-2.37-11.11-.1-2.18.02-4.36-.04-6.54-.12-4.61-.45-4.95-4.9-5.33-7.98-.68-10.32-3.34-10.47-11.45-.11-5.67,1.09-11.2,1.56-16.8.36-4.24-.16-4.8-3.89-3.41-8.86,3.29-17.64,1.61-26.12-1.03-8.38-2.62-10.11-2.94-8.22-14.45.65-3.93,1.28-7.92,2.56-11.67,3.52-10.3,3.54-21.08,4.77-31.68,1.23-10.68,2.99-21.21,6.48-31.41.16-.48.57-.88,1.04-1.56,1.99,1.48,1.17,3.28.84,4.91-.83,4.09-2.08,8.07-2.96,12.17-1.26,5.89-1.82,11.82-2.31,17.8-1.2,14.69-3.67,29.16-7.76,43.35-1.73,5.99-1.23,6.82,4.62,8.7,8.62,2.77,17.47,3.25,26.39,2.05,4.43-.59,4.63-1.33,5.2-6.01,2.04-16.54,2.1-33.25,4.39-49.76.16-1.18,0-2.51,1.69-3.74,1.29,4.17.06,7.93-.13,11.54-.65,12.32-2.1,24.59-3.16,36.89-.95,11.02-1.82,22.06-2.55,33.1-.4,6.05,2.24,8.73,8.28,8.99,4.57.2,9.09-.41,13.51-1.47,3.43-.82,6.21-2.84,8.6-5.49,3.17-3.5,6.46-6.89,10.87-8.95,1.68-.78,3.38-1.78,5.17-1.39,4.89,1.06,10.17.04,14.68,3.32,2.43,1.77,5.74,1.39,8.5.7,5.52-1.37,11.29-.24,16.74-1.98,1.74-.56,2.58.33,3.02,2.11,1.4,5.7,1.43,5.45,7.17,4.69,8.08-1.08,13.25-5.25,15.77-13.02.94-2.9,1.87-5.9,3.91-8.34,1.34-1.6.63-3.46.55-5.25-.15-3.35-.19-6.66,3.67-8.25,1.73-.71,1.49-2.3,1.61-3.72.18-2.12-.28-4.42,1.65-6.12,2.67.5.78,3.76,3.18,4.76.83-5.87-3-11.43-.91-18.45,1.66,4.54,2.2,8.1,2.61,11.65.3,2.56.9,4.94,2.12,7.25,2.23,4.23,1.67,9.18,3.39,13.64,1.84,4.78,2.51,5.84,7.61,6.02,2.54.09,5.09.02,7.63.02l-.04-.05Zm-25.08-17.33c-.38-.28-.77-.22-.83.24-.21,1.62-.55,3.32,1.37,4.87.55-2.15.32-3.67-.55-5.11Z"/>
        <path class="cls-1" d="m1085.56,789.35c2.1,1.28,1.93,3.43,1.83,5.35-.97,17.65,3,34.67,6.67,51.7,1.65,7.66,4.52,14.97,8.23,21.87,4.68,8.7,12.47,12.6,22.06,13.83,11.23,1.45,22.16.11,32.69-3.59,9.48-3.33,19.07-5.38,29.06-6.42,9.55-.99,18.81-3.87,28.02-6.59,1.35-.4,3.83-.04,3-3.17-.29-1.08,1.91-1.37,3.09-1.65,6.87-1.63,13.42-4.14,19.99-6.74,7.57-2.99,15.4-5.33,23.19-7.75,2.77-.86,5.56-1.64,8.25-2.75.97-.4,1.95-1.12,3.38.05-1.06,2.36-3.49,2.91-5.52,3.42-5.99,1.51-11.36,4.81-17.59,5.71-2.59.37-4.5,2.8-7.01,3.92-3.38,1.51-6.69,2.77-10.41,2.82-2.04.03-4.32.21-5.55,1.81-3.18,4.16-8.02,4.8-12.41,6.11-7.09,2.11-14.04,4.78-21.48,5.77-2.66.35-5.3,1.04-8.02,1.3-5.44.51-10.29,3.37-15.73,4.04-4.89.6-9.42,2.66-14.09,4.1-11.97,3.69-24.08,4.99-36.48,2.57-2.13-.42-4.3-.65-6.46-.91-.5-.06-1.02.07-1.69.13-.61,5.63.8,11.29-.82,16.77-.15.51-.65.86-1.41.67-1.28-1.14-.4-2.65-.41-3.99-.02-3.63.19-7.27-.42-10.87-.56-3.27-1.74-6.1-4.18-8.62-7.97-8.22-11.35-18.9-14.7-29.42-3.58-11.26-5.2-23.01-7.31-34.61-.32-1.77-.5-3.63-.33-5.41.49-5.07.78-10.13.84-15.22.02-1.52-.33-3.38,1.72-4.2Z"/>
        <path class="cls-1" d="m1326.55,773.19c.85-3.24,2.2-5.31,4.76-6.13,7.08-2.26,14.22-2.98,19.51,3.49,4.4,5.37,10.01,9.55,14.2,15,4.03,5.23,9.22,8.64,14.86,11.62,5.97,3.16,12.03,4.2,18.9,2.64,8.29-1.88,15.86,1.52,22.38,6.29,4.26,3.12,5.04,8.35,3.71,13.43-1.28,4.89-5,7.35-9.78,8.31-8.39,1.7-16.94,1.83-25.43,2.64-3.61.34-7.23.56-10.83.92-1.28.13-2.52.34-3.74-.23-1.02-.48-1.98-1.13-1.83-2.39.14-1.2,1.27-1.12,2.14-1.19,10.66-.86,21.16-3.15,31.89-3.35,2.88-.05,5.77-.66,8.61-1.22,3.15-.61,5.16-2.5,5.71-5.78.53-3.19-.56-5.65-3.16-7.57-5.38-3.97-11.43-5.47-17.99-4.8-4.55.47-9.08-.03-13.43-.9-6.09-1.22-11.41-4.61-16.37-8.25-7.17-5.26-14.1-10.82-19.24-18.29-2.08-3.02-5.32-4.95-8.33-6.95-3.47-2.3-7.23-2.14-10.91-.39-1.73.82-3.37,1.84-5.63,3.09Z"/>
        <path class="cls-1" d="m1140.68,560.47c-.72-.7-1.45-1.41-2.17-2.12-.05-.79-.09-1.58-.14-2.37,1.26.31,2.37.9,3.26,1.86,7,7.62,13.81,15.32,18.78,24.55,4.04,7.49,8.76,14.62,13.24,21.88,2.21,3.58,3.62,7.51,5.27,11.33,4.48,10.37,7.45,21.17,9.49,32.29,2.55,13.91,5.46,27.75,8.27,41.62.47,2.34.74,4.61.29,7-.66,3.55.42,6.82,2.18,9.88.63,1.1,1.56,2.04,2.06,3.19.47,1.1.88,2.37.06,3.57-.5-2.23-3.63-.44-4.13-2.71-.23-1.06-.55-2.1-.79-3.16-3.87-16.59-7.44-33.27-11.69-49.77-5.48-21.25-11.34-42.41-20.02-62.67-1.59-3.72-3.98-6.9-6.19-10.22-1.21-1.81-2.43-3.6-3.65-5.4-.2-2.51-1.79-4.24-3.35-5.99-2.1-5.51-6.54-9.04-10.76-12.77Zm31.55,46.22c-.05.53.1,2.86,1.19,2.36,1.15-.53-.57-2.16-1.19-2.36Zm3.99,7.3c-.18-.36-.73-1.5-1.05-.56-.22.64.94,1.61,1.05.56Z"/>
        <path class="cls-1" d="m1087.23,463.39c.76,6.5,2.46,12.52,5.89,18.33,3.07,5.21,4.16,11.52,7.03,16.99.57,1.09.87,2.4.32,3.68-.42.99-.01,1.47.77,2.2,3.09,2.86,4.48,6.87,6.37,10.48,1.83,3.49,1.15,6.52-.75,7.32-1.2.5-3.83-2.41-4.8-5.52-.39-1.24-.86-2.37-1.76-3.3-.36,0-.72,0-1.09,0-3.31-2.95-3.37-7.4-5.03-11.11-.63-1.4-2.77-3.55,1-4.28.89-.17.09-1.12-.22-1.73-1.83-3.61-1.82-3.62-6.64-5.81l.03.07c-.05-1.21,1.98-2.31.86-3.28-3.8-3.27-4.28-8.47-7.43-12.06l.04.06c-4.75-10.32-9.15-20.83-15.8-30.17-1.47-2.06-2.66-4.37-4.78-5.86-2.69-1.9-3.23-5.16-4.93-7.69-3-4.45-6.47-8.74-7.99-14.18,3.15,1.72,3.23,1.66,4.95,4.24,5.43,8.14,10.8,16.31,16.17,24.48,2.18,3.32,4.26,6.69,6.73,9.85,3.18,4.08,6.02,8.49,7.65,13.68,1.38-2.84-.1-6.22,2.34-8.53.36.72.71,1.43,1.07,2.15Zm15.68,48.32c-.22-.39-.99-1.46-1.06-.38-.04.62.98,1.35,1.06.38Z"/>
        <path class="cls-1" d="m1282.48,840.16c3.27-2.84,7.17-3.74,10.84-4.92,4.13-1.33,8.43-2.16,12.63-3.29,11.74-3.16,23.44-6.45,35.2-9.51,6.78-1.76,13.62-2.53,20.02,1.49,2.58,1.62,5.98,1.28,8.31,3.18-.14,1.33-.93,1.56-1.6,1.41-5.48-1.21-11.08-.36-16.62-.85-3.92-.35-8.03,1.36-12.04,2.22-2.67.58-5.26,1.36-7.89-.28-1.31-.82-2.85-.41-4.24.03-12.8,4.03-26.34,5.36-38.8,10.69-1.67.71-3.63,1.81-5.8-.16Z"/>
        <path class="cls-1" d="m440.9,546.52c2.19,1.6,1.83,4.06,1.79,6.27-.14,9.26.39,18.49,1.26,27.7.21,2.18.24,4.46,1.25,6.37,2.06,3.91,2.14,8,1.79,12.19-.26,3.11.07,6.16.49,9.21.53,3.95,1.17,7.88.92,11.91-.3,4.98,1.24,9.85,2.95,14.2,2.57,6.55,2.81,13.42,4.53,20.04,1.26,4.84,3,9.63,3.39,14.7-1.56.36-1.8-.74-1.94-1.46-2.75-13.86-8.14-27.04-10.75-40.92-1.74-9.26-2.19-18.69-2.52-28.11-.06-1.65-.29-3.23-.64-4.82-3.12-14.43-3.74-29.09-3.92-43.79-.01-1.18-.33-2.6,1.39-3.5Z"/>
        <path class="cls-1" d="m407.4,535.63c.58,3.51,1.31,7.01,1.72,10.55,1.13,9.57,2.99,18.97,6.07,28.12.53,1.58.68,3.11.33,4.8-3.02,14.62-4.18,29.39-3.38,44.3.23,4.33-.8,8.67.2,12.99.08.34.07.76-.07,1.07-.78,1.74-.75,4.88-2.86,4.69-2.55-.23-1.6-3.22-1.46-4.98.99-12.32,1.07-24.63.62-36.98-.11-3.01.91-6.07,1.49-9.09.81-4.26,1.59-8.52,2.56-12.74.43-1.87.06-3.57-.3-5.35-1.53-7.62-4.21-15-5.07-22.76-.53-4.8-.81-9.63-1.2-14.45.45-.05.9-.11,1.35-.16Z"/>
        <path class="cls-1" d="m600.46,467.94c-27.16-10.03-54.15-19.82-78.87-35.06,1.14-1.7,2.26-1.13,3.2-.77,6.28,2.4,12.66,4.59,18.76,7.39,4.42,2.03,8.02,5.58,12.69,7.31,11.05,4.1,21.25,10.27,32.67,13.52,3.32.94,6.51,2.32,9.5,4.07,1.04.6,2.41,1.05,2.05,3.54Z"/>
        <path class="cls-1" d="m1099.22,513.57c.36,0,.72,0,1.09,0-2.7,5.34.17,9.71,2.56,14.11,1.6,2.95,4.41,5.2,5.57,9.1-2.98-.58-3.64-2.86-4.66-4.51-1.82-2.94-3.66-5.82-6.2-8.22-2.43-2.3-3.85-5.32-4.97-8.36-3.89-10.47-8.51-20.6-13.28-30.68-1.92-4.05-4.05-8.15-4.09-12.85l.04-.03c2.62.24,4.34,2.26,6.55,3.32,0,0-.04-.06-.04-.06-.47,1.47-.39,2.96.5,4.17,2.54,3.45,2.45,8.32,6.07,11.17,0,0-.03-.07-.03-.07-.85,1.92-.75,3.66.12,5.7,1.58,3.68,3.83,7.05,4.76,11.08.46,2,1.55,4.04,3.13,5.63.86.87,1.76,1.22,2.89.53Z"/>
        <path class="cls-1" d="m1036.62,256.82c6.42-2.46,12.86-4.8,18.79-8.19,5.24-3,4.67-10.47-.75-13.21-.16-.08-.34-.13-.51-.2-2.19-.89-5.08-1.68-4.12-4.71.83-2.6,3.72-1.64,5.73-1.51,6.39.42,10.88,9.16,7.83,14.8-2,3.7-5.19,6.03-8.73,7.95-6.05,3.28-12.58,5.59-18.54,9.13-2.67,1.59-3.27,1-3.59-2.43-.16-1.74-1.33-3.5.12-5.21.69-.81,1.23-2.05,2.56-1.53,1.08.42.77,1.47.56,2.36-.16.71-.33,1.42.65,2.75Z"/>
        <path class="cls-1" d="m371.23,531.84c1.88,1.86,2.15,4.1,2.32,6.21.85,10.46.6,20.88-.48,31.35-.55,5.35.16,10.86.6,16.27.23,2.9.81,5.87.21,8.66-.68,3.19-.41,6.3.67,9.07,2.54,6.48,2.18,13.07,1.75,19.81-1.59-.25-1.12-1.62-1.21-2.46-.56-5.8-2.66-11.33-3.21-17.07-.88-9.16-.94-18.39-1.56-27.57-.33-4.91.05-9.66.94-14.52.77-4.22.84-8.72.3-12.98-.61-4.85.2-9.8-1.19-14.56-.19-.65-.14-1.44.86-2.2Z"/>
        <path class="cls-1" d="m456.13,437.19c2.23,1.99,2.01,4.25,1.86,6.37-.32,4.5-.8,8.99-1.28,13.48-.09.88-.24,1.95-.78,2.56-3.22,3.61-3.23,8.38-4.67,12.62-1.22,3.59-1.51,7.47-3.38,10.87-.42.76-.69,1.79-.56,2.62,1.17,7.73-1.81,15.02-2.31,22.57-.31,4.65-2.76,8.84-2.34,13.37-1.46.25-1.88-.22-1.76-.76,1.85-8.36,1.34-16.99,3.01-25.35,1.73-8.65,2.99-17.35,5.75-25.86,2.83-8.71,4.98-17.81,5.07-27.17.02-1.7-.48-3.63,1.4-5.32Z"/>
        <path class="cls-1" d="m430.95,684.08c-1.77-25.81-5.21-51.41-9.62-76.8.86-.46,1.27-.02,1.44.43,2.12,5.41,3.87,10.98,4.68,16.71,1.67,11.82,2.92,23.71,4.35,35.57.91,7.57,1.15,15.17.9,22.78-.02.47-.44.92-.68,1.38-.36-.02-.71-.05-1.07-.07Z"/>
        <path class="cls-1" d="m1104.71,273.61c.68-.64,1.35-1.28,2.03-1.92.88-.62,1.68-1.52,2.66-1.82,2.99-.94,4.19-3.17,4.85-5.96.24-1.01.23-2.19,1.37-2.78,2.2,4.12,2.01,5.92-1.03,9.11-.66.69-1.03,1.46-1.21,2.36,0,0,.04-.05.04-.05-2.66,2.29-5.33,4.56-7.96,6.88-1.25,1.1-.95,2.12.31,2.99l-.02-.03c-2.35,3.25-5.99,2.85-9.34,3.35-6.6.98-13.2,1.29-19.87.48,6.25-.7,12.62-.71,18.34-3.83l-.05.04c.81-.08,3.4,0,3.57-1.18.21-1.43-1.71-.86-2.44-1.03,1.33-2.09,3.89-2.63,5.49-4.38,0,0-.07.04-.07.04,1.53-.16,2.8-.68,3.33-2.28Z"/>
        <path class="cls-1" d="m450.65,385.66c4.53,5.04,8.46,10.46,13.92,14.37,5.61,4.01,10.8,8.64,16.86,11.97,5.75,3.15,12.1,5.26,17.37,9.55-1.39,1.34-2.51.74-3.39.29-13.74-6.98-27.88-13.36-38.98-24.53-3.15-3.17-6.37-6.37-5.78-11.64Z"/>
        <path class="cls-1" d="m1009.71,621.29c2.45,2.61,2.69,5.37,2.17,8.23-.9,4.99-1.73,10.02-3,14.93-1.87,7.21-3.41,14.47-4.39,21.85-.21,1.57-.04,3.33-1.7,4.35-1.54-.31-1.4-1.46-1.29-2.54.8-7.93,1.88-15.79,3.8-23.58,1.85-7.47,2.91-15.14,4.42-23.24Z"/>
        <path class="cls-1" d="m597.17,522.84c-1.04,1.06-1.95.88-2.8.6-7.21-2.42-14.8-3.61-21.81-6.69-2.49-1.09-5.05-2.02-7.78-2.44-1.06-.17-2.11-.56-3.12-.95-1.24-.47-1.5-1.55-1.28-2.69.28-1.52,1.48-1.4,2.55-1.1,3.49.99,7,1.94,10.43,3.11,7.02,2.39,14.41,3.78,20.92,7.59.78.45,1.58.87,2.31,1.39.25.18.32.62.59,1.17Z"/>
        <path class="cls-1" d="m1035.47,643.04c2.6,7.92.84,15.49.25,23-.34,4.34-.76,8.66-.85,13.01-.03,1.62-.18,3.26-.47,4.86-.19,1.02-.55,2.3-2,2.06-1.32-.22-1.57-1.38-1.5-2.53.8-13.36.3-26.85,4.57-40.4Z"/>
        <path class="cls-1" d="m1204.15,737.54c-.37,2.56.11,5.03.65,7.52.51,2.35-.17,4.44-2.42,5.49-2.78,1.3-5.77,2.1-8.81,2.6-.74.12-1.51-.05-1.73-.9-.27-1.1.47-1.72,1.37-1.97,1.57-.42,3.2-.59,4.76-1.03,3.4-.95,4.18-2.2,2.86-5.55-.78-2-.74-3.55-.08-5.62,1.47-4.62-.38-9.28-.7-13.94-.12-1.8-.5-3.58-.67-5.37-.09-.96.26-1.85,1.4-1.9.78-.03,1.32.56,1.6,1.26.2.49.3,1.05.35,1.58.49,5.94.95,11.88,1.42,17.82Z"/>
        <path class="cls-1" d="m276.51,407.26c-4.52-4.54-6.74-9.53-9.29-14.22-3.65-6.7-9.31-11.95-12.93-18.68-1.04-1.93-3.45-3.11-5.19-4.68-.41-.37-.48-.98-.13-1.46.36-.5.97-.58,1.44-.31,2.06,1.15,3.97,2.53,5.44,4.41,8,10.26,15.02,21.13,20.65,32.87.13.28.02.67.02,2.07Z"/>
        <path class="cls-1" d="m515.11,493.67c.77-1.15,1.91-.87,2.89-.55,7.22,2.37,14.07,5.62,20.83,9.06,1.09.56,2.1,1.47,2.85,2.45.71.93.06,1.78-1,1.84-.87.04-1.8-.22-2.63-.54-7.44-2.82-14.43-6.63-21.54-10.15-.78-.38-1.57-.96-1.4-2.1Z"/>
        <path class="cls-1" d="m665.53,529.71c.68,6.53-1.18,8.71-5.81,7.35-1.19-.35-1.91-.94-1.89-2.23.12-8.29.12-16.6,4.09-24.24.23-.44.6-.81,1.38-1.85.65,3.77-1.65,6.24-1.87,9.08-.22,2.88-.5,5.75-.74,8.63-.23,2.87-1.86,6.01,1.47,8.49,2.01-1.19.87-4.04,3.36-5.23Z"/>
        <path class="cls-1" d="m1051.59,669.57v-33.32c.42,0,.84.01,1.27.02.22,11.11,1.58,22.24-1.27,33.3Z"/>
        <path class="cls-1" d="m463.27,692.05c-.69,6.71-7.99,14.6-15.5,16.82,1.06-4.47,4.97-6.22,7.66-8.77,2.63-2.5,4.14-6.18,7.84-8.05Z"/>
        <path class="cls-1" d="m311.66,271.11c6.63,10.34,5.98,22.81-2.22,29.22,3.11-5.28,3.93-9.91,4.56-14.65.66-4.92-2.65-9.14-2.34-14.57Z"/>
        <path class="cls-1" d="m725.21,540.87c1.43-2.45,3.1-1,4.58-.18,2.52,1.4,4.9,3.03,7.42,4.42,2.05,1.13,4.24,1.91,6.59,2.34,2.04.37,4.17.86,6.05,3.54-5.83-.63-10.78-.41-15.05-4.37-2.7-2.5-6.4-3.92-9.65-5.83l.05.07Z"/>
        <path class="cls-1" d="m1108.33,745.09c2.29,11.18,3.86,22.38,6.86,33.31-5.24-10.55-6.7-21.86-6.86-33.31Z"/>
        <path class="cls-1" d="m1104.36,716.07c-2.14-13.1-4.58-26.22-5.02-39.58,2.82,13.03,4.38,26.22,5.02,39.58Z"/>
        <path class="cls-1" d="m416.72,489.15c.52,3.6-3.05,16.62-5.96,23.21-1.28,0-1.63-1.01-1.34-1.84,2.42-7.12,3.75-14.61,7.31-21.37Z"/>
        <path class="cls-1" d="m1087.23,463.39c-.36-.72-.71-1.43-1.07-2.15-4.77-3.01-3.45-7.63-3.22-12.45,4.01,2.86,2.37,7.56,4.34,10.79,2.03,3.34,3.88,6.77,4.77,10.67-2.24-1.89-2.79-4.89-4.82-6.86Z"/>
        <path class="cls-1" d="m1171.2,722.92c1.87,2.44,1.97,5.33,2.22,8.23.5,5.69,1.17,11.37,1.81,17.46-3.49-5.56-5.33-17.84-4.03-25.7h0Z"/>
        <path class="cls-1" d="m470.9,478.54c-5.03.26-9.65-1.2-14.3-2.46-1.27-.34-2.51-1.1-1.95-2.69.6-1.7,2.09-1.18,3.18-.65,4.29,2.07,9.25,2.57,13.07,5.8Z"/>
        <path class="cls-1" d="m1069.8,432.87c-.86-.2-2.09-.11-2.53-.65-2.86-3.57-5.44-7.35-7.09-12.45,3.68,2.61,7.27,7.7,9.61,13.11h.02Z"/>
        <path class="cls-1" d="m725.16,540.8c.65,2.41,1.36,4.8,1.93,7.23.16.69-.18,1.44-1.03,1.62-.31.07-.73,0-.99-.18-1.97-1.37-3.49-8.26-2.37-10.7.06-.12.3-.16.48-.25,1.14.37,1.14,1.75,2.03,2.34,0,0-.05-.07-.05-.07Z"/>
        <path class="cls-1" d="m1175.58,769.83c2.77-2.36,3.52-5.13,2.23-8.65-.74-2.02-.6-4.27-.02-6.39.61-2.24,1.99-2.72,4.13-1.79q-3.12,3.71-1.99,9.72c.93,4.94.16,6.19-4.39,7.06,0,0,.04.05.04.05Z"/>
        <path class="cls-1" d="m1056.65,901.47c-1.97-3.28-2.36-6.85-2.84-10.39-.09-.7.26-1.54,1.18-1.46.41.04,1.05.57,1.13.97.66,3.58,2.11,7.13.53,10.88Z"/>
        <path class="cls-1" d="m744.56,543.27c-4.22-1.26-8.03-3.11-10.05-7.29,4,1.52,7.3,4,10.05,7.29Z"/>
        <path class="cls-1" d="m1171.21,722.92c-3.19-5.31-1.98-11.4-3.16-17.07,1.48,5.61,3.99,11.04,3.16,17.07h0Z"/>
        <path class="cls-1" d="m1055.63,184.25c-1.96-.24-3.13,3.4-5.52,1.12-1.94-1.86-5.07-2.92-4.31-6.55,0,0-.02,0-.02,0,2.49,3.23,7,2.84,9.82,5.47l.03-.04Z"/>
        <path class="cls-1" d="m440.34,536.63c-1.14-3.49-1-6.92.93-10.97,1.21,4.23.59,7.6-.93,10.97Z"/>
        <path class="cls-1" d="m1120.57,299.64c-1.59-2.9-.1-5.55-.34-8.75,2.38,3.42,2.4,4.86.34,8.75Z"/>
        <path class="cls-1" d="m1047.95,209.34c2.38,2.3,5.81,2.48,8.44,4.31-4.26.27-7.83-1.13-10.66-4.37.75.03,1.51.06,2.26.08l-.04-.03Z"/>
        <path class="cls-1" d="m1056.34,226.31c1.33-.74,1.19-2.59,2.78-2.96.89-.21,1.85-.39,2.35.61.46.93.06,1.81-.82,2.22-1.3.61-2.7.8-4.31.13Z"/>
        <path class="cls-1" d="m1089.55,281.73c-2.08,1.95-4.69,1.58-7.16,1.88,2.14-1.7,4.62-1.91,7.16-1.88Z"/>
        <path class="cls-1" d="m1059.55,199.04c-1.98.9-3.33.59-4.95-.93,2.01-.88,3.43-1.02,4.95.93Z"/>
        <path class="cls-1" d="m1056.85,422.52c1.82,1.71,2.88,3.23,3.6,5.22-2.54-1.39-2.55-1.38-3.6-5.22Z"/>
        <path class="cls-1" d="m1058.89,203.89c-2.79.89-4.78-.82-6.79-2.45,2.47.14,4.69,1.11,6.78,2.47,0,0,.01-.02.01-.02Z"/>
        <path class="cls-1" d="m1113.39,272.6c1.67.57,2.32,1.58,1.32,3.21-.79,1.29-2.03,1.93-3.46,2.24l-.02-.02c1.15-1.66,2.14-3.39,2.21-5.48l-.04.05Z"/>
        <path class="cls-1" d="m1079.64,267.19c-1.34,1.55-2.89,2.62-6.12,2.31,2.12-1.98,4.08-2.18,6.03-2.41,0,0,.08.1.08.1Z"/>
        <path class="cls-1" d="m1124.53,201.62c-.8.03-1.6.07-2.41.1-.73-.19-1.88-.16-2.26-.93-.29-.6-.18-1.45.52-1.64,1.46-.4,3.29,1.53,4.14,2.47Z"/>
        <path class="cls-1" d="m1153.54,583.52c-2.93-.35-4.01-1.67-5.9-4.11,2.87.96,4.04,2.15,5.9,4.11Z"/>
        <path class="cls-1" d="m1035.98,183.18c-2.68-.09-4.91-1.1-6.61-3.2l.11-.13c2.62.24,4.95,1.02,6.5,3.34h0Z"/>
        <path class="cls-1" d="m1077.71,444.46c-.77.65-4.2-.34-3.15-1.5,1.16-1.28,3.05.14,3.15,1.5Z"/>
        <path class="cls-1" d="m1142.88,842.87c1.2-.95,1.85-2.58,4-3.04-.52,2.57-1.61,3.66-4.05,3l.05.04Z"/>
        <path class="cls-1" d="m1075.23,472.14c-1.23-1.5-2.32-3.06-2.02-5.75,2.06,1.75,1.94,3.78,2.06,5.72,0,0-.04.03-.04.03Z"/>
        <path class="cls-1" d="m1069.78,432.88c1.33.91,2.34,2.02,2.69,4.52-2.66-1-2.58-2.82-2.68-4.53,0,0-.01.01-.01.01Z"/>
        <path class="cls-1" d="m1111.24,278.06c-.14,3.57-2.9,3.84-5.48,4.34,0,0,.02.03.02.03,1.3-2.1,3.49-3.09,5.44-4.39l.02.02Z"/>
        <path class="cls-1" d="m1073.88,432.87c-1.02-.4-1.37-2.41.07-2.3,1.27.1,1.26,2.35-.07,2.3Z"/>
        <path class="cls-1" d="m1040.65,205.3c.67.09,1.39.33,1.67,1.01.22.54.13,1.21-.54,1.27-1.1.11-3.24-2.11-1.13-2.28Z"/>
        <path class="cls-1" d="m1081.75,253.71c-.55,1.86-1.28,2.83-3.25,3.18.56-2,1.43-2.79,3.25-3.18Z"/>
        <path class="cls-1" d="m1098.12,247.54c.7-.06,1.71-.2,1.49.84-.3,1.41-1.01,2.73-3.01,3.03.56-1.4,1.06-2.65,1.57-3.91,0,0-.05.04-.05.04Z"/>
        <path class="cls-1" d="m1098.16,247.5c-2.74-2.63.32-3.27,1.87-4.43-.64,1.49-1.28,2.98-1.92,4.47,0,0,.05-.04.05-.04Z"/>
        <path class="cls-1" d="m1081.81,442.67c-.74-.16-3.46-.62-2.34-1.95,1.12-1.33,2.03,1.32,2.29,2,0,0,.05-.05.05-.05Z"/>
        <path class="cls-1" d="m666.05,504.29c-.11.62-.24,1.34-.85,1.66-.62.32-1.02-.05-1.08-.66-.12-1.21,1.78-2.99,1.93-1Z"/>
        <path class="cls-1" d="m1158.68,393.41c-.55-1.91-.85-3.05.44-4.01.98,1.21.16,2.22-.44,4.01Z"/>
        <path class="cls-1" d="m1090.5,263.88c1.14-.51,2.27-.75,3.36.1-.76.88-1.53,1.9-2.85,1.59-.84-.2-.59-1.04-.51-1.69Z"/>
        <path class="cls-1" d="m1167.91,367.43c-.32,1.61-.45,3.33-2.62,4.36-.27-2.54,1.37-3.32,2.66-4.32,0,0-.04-.04-.04-.04Z"/>
        <path class="cls-1" d="m1121.08,219.19c-.21-.65-1.43-2.81-.15-3.05,1.66-.31.43,2.53.1,3.02,0,0,.05.03.05.03Z"/>
        <path class="cls-1" d="m1133,566.79c1.41.96,2.73,2.09,4.48,2.45.32.41.65.81.97,1.22-2.49-.22-4.89-.57-5.46-3.66Z"/>
        <path class="cls-1" d="m1066.51,437.25c1.32.93,2.38,2.05,2.64,4.41-1.93-1.26-2.34-2.8-2.63-4.43h-.01Z"/>
        <path class="cls-1" d="m1047.76,244.53c-1.09.4-.98-1.99-.19-2.33,1.25-.54.66,1.87.19,2.33Z"/>
        <path class="cls-1" d="m1036.02,178.44c.32.22.88.36,1.02.77.17.48-.04.68-.51.67-.86-.02-2.07-1.75-.51-1.44Z"/>
        <path class="cls-1" d="m1000,213.72c-2.23.82-3.39-.5-4.36-2.18,0,0,0,0,0,0,1.71.21,3.14.98,4.36,2.18h0Z"/>
        <path class="cls-1" d="m1070.49,459.08c-.21,1.24-1.47-.45-1.27-1.14.37-1.27,1.24.63,1.27,1.14Z"/>
        <path class="cls-1" d="m1110.33,529.86c-.39.03-.78.05-1.17.08-.74-1.44-1.42-2.88-.1-4.36l-.04-.04c.44,1.44.88,2.88,1.32,4.32Z"/>
        <path class="cls-1" d="m1041.06,246.97c.19-.15.41-.32.63-.49.2.28.87,1.15.23,1.48-.54.28-.86-.6-.86-.99Z"/>
        <path class="cls-1" d="m1066.53,437.24c-1.09-.71-2.41-1.24-2.35-3.07,1.78.42,1.93,1.85,2.33,3.08,0,0,.01-.01.01-.01Z"/>
        <path class="cls-1" d="m1025.08,177.73c-1.24-.21-2.41-.57-3.6-1.95,2.01-.17,2.83.85,3.6,1.95h0Z"/>
        <path class="cls-1" d="m1212.91,862.17c.41.12,1.29.23.78.89-.43.57-1.09.03-1.47-.23.23-.22.45-.44.69-.66Z"/>
        <path class="cls-1" d="m1121.82,287.09c-.16.24-.32.47-.47.71-.69-.53-.72-.5-.22-1.24.23.18.46.35.69.53Z"/>
        <path class="cls-1" d="m1086.14,266.05c.45.79.81,1.58-.25,2.19-.12.07-.42.04-.48-.05-.68-1.04.48-1.46.77-2.17,0,0-.05.03-.05.03Z"/>
        <path class="cls-1" d="m1151.2,694.82c-.69.14-.77-.99-.42-1.35.85-.89.52,1,.42,1.35Z"/>
        <path class="cls-1" d="m1029.37,179.98c-1.66-.32-3.16-.93-4.29-2.25h0c1.82-.02,3.31.64,4.41,2.12,0,0-.11.13-.11.13Z"/>
        <path class="cls-1" d="m1109.06,525.58c.56-1.21.44-2.87,2.19-3.29,0,0-.03-.04-.03-.04-.13,1.5-.62,2.76-2.2,3.29l.04.04Z"/>
        <path class="cls-1" d="m1094.89,282.39c-.57-.29-1.38-.56-1.05-1.35.36-.87,1.32-.77,2.12-.82-.38.74-.75,1.47-1.13,2.21l.05-.04Z"/>
        <path class="cls-1" d="m1128.7,243.18c.14-1.11-.54-2.37.55-3.41.91,1.4.05,2.37-.6,3.38,0,0,.04.03.04.03Z"/>
        <path class="cls-1" d="m1103.56,242.04c.21.72.32,1.11.03,1.84-.27.66-.42.46-1.05.33.24-.96.4-1.44,1.08-2.14,0,0-.05-.03-.05-.03Z"/>
        <path class="cls-1" d="m1044.12,190.23c-.85.04-.88.06-1.25-.72.83-.03.88-.04,1.25.72Z"/>
        <path class="cls-1" d="m1136.64,552.86c-.85,0-1.69-.01-2.54-.02,0-1.18,0-2.36-.01-3.55,1.3.86,2.1,2.09,2.55,3.56Z"/>
        <path class="cls-1" d="m1142.83,842.83c0,.44,0,3.05-.92,2.61-.5-.24-.24-.99-.1-1.38.24-.67.53-.79,1.06-1.2,0,0-.05-.04-.05-.04Z"/>
        <path class="cls-1" d="m1102.47,455.74c-.25,1.28-1.09,1.44-2.17,1.14,0-1.46,0-2.93,0-4.39.72,1.08,1.44,2.17,2.16,3.25Z"/>
      </g>
    </g>
  </g>
</svg>